<svg xmlns="http://www.w3.org/2000/svg" xmlns:xlink="http://www.w3.org/1999/xlink" viewBox="0 0 180 180" width="180" height="180" preserveAspectRatio="xMidYMid meet" style="width: 100%; height: 100%; transform: translate3d(0px, 0px, 0px); content-visibility: visible;"><defs><clipPath id="__lottie_element_151"><rect width="180" height="180" x="0" y="0"></rect></clipPath></defs><g clip-path="url(#__lottie_element_151)"><g transform="matrix(1,0,0,1,0,0)" opacity="1" style="display: block;"><g opacity="1" transform="matrix(1,0,0,1,147.41900634765625,114.822998046875)"><path fill="rgb(19,16,33)" fill-opacity="1" d=" M29.95199966430664,-12.293000221252441 C29.615999221801758,-12.541999816894531 29.177000045776367,-12.475000381469727 28.79599952697754,-12.321999549865723 C29.121000289916992,-13.133000373840332 29.3700008392334,-13.859000205993652 29.540000915527344,-14.508000373840332 C30.06100082397461,-16.104000091552734 30.040000915527344,-17.226999282836914 29.481000900268555,-17.910999298095703 C29.20599937438965,-18.2450008392334 28.84600067138672,-18.41699981689453 28.479999542236328,-18.499000549316406 C28.44499969482422,-18.507999420166016 28.413000106811523,-18.514999389648438 28.37700080871582,-18.520999908447266 C28.350000381469727,-18.525999069213867 28.325000762939453,-18.52899932861328 28.29800033569336,-18.53499984741211 C28.246000289916992,-18.54400062561035 28.19300079345703,-18.549999237060547 28.136999130249023,-18.55299949645996 C28.12299919128418,-18.55299949645996 28.111000061035156,-18.55500030517578 28.09600067138672,-18.55500030517578 C28.04400062561035,-18.558000564575195 27.993999481201172,-18.562000274658203 27.94099998474121,-18.562000274658203 C27.94099998474121,-18.562000274658203 27.829999923706055,-18.562000274658203 27.829999923706055,-18.562000274658203 C27.829999923706055,-18.562000274658203 27.756999969482422,-18.562000274658203 27.756999969482422,-18.562000274658203 C27.305999755859375,-18.54400062561035 26.95800018310547,-18.444000244140625 26.924999237060547,-18.43600082397461 C26.554000854492188,-18.344999313354492 26.216999053955078,-18.222999572753906 25.968000411987305,-18.1200008392334 C25.95599937438965,-18.523000717163086 25.868999481201172,-18.886999130249023 25.709999084472656,-19.211000442504883 C25.485000610351562,-19.667999267578125 25.148000717163086,-19.97800064086914 24.70599937438965,-20.135000228881836 C23.92799949645996,-20.45400047302246 22.93400001525879,-20.18000030517578 22.051000595092773,-19.756000518798828 C21.606000900268555,-19.54800033569336 21.29599952697754,-19.35099983215332 21.257999420166016,-19.32699966430664 C21.076000213623047,-19.2189998626709 20.906999588012695,-19.11199951171875 20.753999710083008,-19.010000228881836 C21.027000427246094,-19.89699935913086 20.979999542236328,-20.510000228881836 20.607999801635742,-20.8700008392334 C19.856000900268555,-21.599000930786133 18.172000885009766,-20.79800033569336 17.98200035095215,-20.70400047302246 C17.507999420166016,-20.513999938964844 16.97800064086914,-20.257999420166016 16.386999130249023,-19.92799949645996 C14.437000274658203,-18.839000701904297 12.104000091552734,-16.270000457763672 9.39900016784668,-13.289999961853027 C5.343999862670898,-8.824000358581543 0.296999990940094,-3.2679998874664307 -5.894000053405762,0.09600000083446503 C-9.878000259399414,2.257999897003174 -14.475000381469727,1.937000036239624 -18.506000518798828,-0.7829999923706055 C-20.891000747680664,-2.3970000743865967 -23.03700065612793,-5.0279998779296875 -24.399999618530273,-7.618000030517578 C-24.399999618530273,-7.618000030517578 -24.937000274658203,-7.335999965667725 -24.937000274658203,-7.335999965667725 C-23.520000457763672,-4.49399995803833 -21.117000579833984,-1.8109999895095825 -18.527000427246094,-0.061000000685453415 C-14.295999526977539,2.7960000038146973 -9.791000366210938,2.9230000972747803 -5.598999977111816,0.6430000066757202 C0.6869999766349792,-2.7720000743865967 5.771999835968018,-8.371000289916992 9.857999801635742,-12.871999740600586 C12.524999618530273,-15.810999870300293 14.829000473022461,-18.347000122070312 16.687999725341797,-19.382999420166016 C19.167999267578125,-20.76799964904785 19.875999450683594,-20.496000289916992 20.06599998474121,-20.31399917602539 C20.305999755859375,-20.08300018310547 20.263999938964844,-19.530000686645508 20.077999114990234,-18.951000213623047 C20.0049991607666,-18.746000289916992 19.910999298095703,-18.51799964904785 19.791000366210938,-18.257999420166016 C19.791000366210938,-18.257999420166016 19.4689998626709,-17.618000030517578 19.4689998626709,-17.618000030517578 C17.10700035095215,-13.274999618530273 9.659000396728516,-5.318999767303467 9.579999923706055,-5.234000205993652 C9.579999923706055,-5.234000205993652 10.03499984741211,-4.810999870300293 10.03499984741211,-4.810999870300293 C10.375,-5.172999858856201 18.32200050354004,-13.664999961853027 20.320999145507812,-17.923999786376953 C20.607999801635742,-18.158000946044922 21.065000534057617,-18.490999221801758 21.594999313354492,-18.808000564575195 C21.594999313354492,-18.808000564575195 21.614999771118164,-18.81800079345703 21.63800048828125,-18.83300018310547 C21.816999435424805,-18.937999725341797 22.003999710083008,-19.04199981689453 22.19499969482422,-19.138999938964844 C22.785999298095703,-19.42799949645996 23.698999404907227,-19.773000717163086 24.39900016784668,-19.58300018310547 C24.402000427246094,-19.58300018310547 24.405000686645508,-19.582000732421875 24.405000686645508,-19.57900047302246 C24.448999404907227,-19.566999435424805 24.48699951171875,-19.54800033569336 24.527999877929688,-19.533000946044922 C24.975000381469727,-19.31399917602539 25.24799919128418,-18.7810001373291 25.339000701904297,-17.94099998474121 C25.229999542236328,-14.479999542236328 18.93199920654297,-7.625 13.972999572753906,-2.558000087738037 C13.972999572753906,-2.558000087738037 14.418999671936035,-2.121999979019165 14.418999671936035,-2.121999979019165 C21.836999893188477,-9.70199966430664 25.468000411987305,-14.494000434875488 25.917999267578125,-17.420000076293945 C26.195999145507812,-17.55500030517578 26.63599967956543,-17.729999542236328 27.100000381469727,-17.841999053955078 C27.288000106811523,-17.88599967956543 27.475000381469727,-17.92099952697754 27.663000106811523,-17.93600082397461 C27.858999252319336,-17.950000762939453 28.082000732421875,-17.950000762939453 28.301000595092773,-17.9060001373291 C28.301000595092773,-17.9060001373291 28.305999755859375,-17.9060001373291 28.305999755859375,-17.9060001373291 C28.31599998474121,-17.902999877929688 28.325000762939453,-17.899999618530273 28.33300018310547,-17.899999618530273 C28.514999389648438,-17.856000900268555 28.679000854492188,-17.777000427246094 28.80699920654297,-17.656999588012695 C29.114999771118164,-17.371000289916992 29.433000564575195,-16.62700080871582 28.941999435424805,-14.729000091552734 C28.680999755859375,-13.92300033569336 28.25200080871582,-12.904999732971191 27.56599998474121,-11.619999885559082 C24.500999450683594,-5.875 18.382999420166016,-0.40299999713897705 18.32200050354004,-0.3479999899864197 C18.32200050354004,-0.3479999899864197 18.733999252319336,0.11800000071525574 18.733999252319336,0.11800000071525574 C18.79599952697754,0.06199999898672104 24.812000274658203,-5.315999984741211 27.969999313354492,-11.064000129699707 C27.969999313354492,-11.064000129699707 28.336000442504883,-11.35200023651123 28.336000442504883,-11.35200023651123 C28.354000091552734,-11.364999771118164 28.371999740600586,-11.376999855041504 28.391000747680664,-11.392999649047852 C28.773000717163086,-11.675000190734863 29.36400032043457,-11.958999633789062 29.577999114990234,-11.79800033569336 C29.697999954223633,-11.708000183105469 30.215999603271484,-11.048999786376953 28.562000274658203,-6.828999996185303 C27.0310001373291,-2.921999931335449 22.847000122070312,3.496000051498413 16.95199966430664,9.02299976348877 C12.015000343322754,13.649999618530273 4.052999973297119,19.37700080871582 -5.8470001220703125,20.389999389648438 C-11.479999542236328,20.965999603271484 -22.124000549316406,20.66200065612793 -30.111000061035156,12.142999649047852 C-30.233999252319336,12.01099967956543 -30.323999404907227,11.904999732971191 -30.444000244140625,11.770000457763672 C-30.586999893188477,11.918000221252441 -30.857999801635742,12.243000030517578 -30.857999801635742,12.243000030517578 C-30.731000900268555,12.383000373840332 -30.69099998474121,12.434000015258789 -30.56100082397461,12.569999694824219 C-22.39299964904785,21.283000946044922 -11.529999732971191,21.599000930786133 -5.7829999923706055,21.010000228881836 C1.649999976158142,20.249000549316406 7.999000072479248,16.886999130249023 12.82699966430664,13.289999961853027 C14.541999816894531,12.013999938964844 16.065000534057617,10.706000328063965 17.375999450683594,9.47700023651123 C23.7549991607666,3.497999906539917 27.701000213623047,-2.921999931335449 29.139999389648438,-6.605000019073486 C30.85700035095215,-10.970999717712402 30.427000045776367,-11.942000389099121 29.95199966430664,-12.293000221252441z"></path></g></g><g transform="matrix(1,0,0,1,0,0)" opacity="1" style="display: block;"><g opacity="1" transform="matrix(1,0,0,1,33.0890007019043,114.83100128173828)"><path fill="rgb(19,16,33)" fill-opacity="1" d=" M30.444000244140625,11.772000312805176 C30.323999404907227,11.906999588012695 30.232999801635742,12.01200008392334 30.110000610351562,12.142999649047852 C22.124000549316406,20.663000106811523 11.482999801635742,20.966999053955078 5.8470001220703125,20.389999389648438 C-4.052999973297119,19.37700080871582 -12.012999534606934,13.651000022888184 -16.95199966430664,9.024999618530273 C-22.847999572753906,3.496000051498413 -27.0310001373291,-2.9210000038146973 -28.562000274658203,-6.831999778747559 C-30.215999603271484,-11.050999641418457 -29.697999954223633,-11.711999893188477 -29.57699966430664,-11.800000190734863 C-29.36400032043457,-11.958000183105469 -28.768999099731445,-11.673999786376953 -28.392000198364258,-11.394000053405762 C-28.374000549316406,-11.378999710083008 -28.354000091552734,-11.368000030517578 -28.336000442504883,-11.352999687194824 C-28.336000442504883,-11.352999687194824 -27.97100067138672,-11.067000389099121 -27.97100067138672,-11.067000389099121 C-24.81100082397461,-5.318999767303467 -18.79599952697754,0.05999999865889549 -18.733999252319336,0.11599999666213989 C-18.733999252319336,0.11599999666213989 -18.32200050354004,-0.3490000069141388 -18.32200050354004,-0.3490000069141388 C-18.382999420166016,-0.4059999883174896 -24.500999450683594,-5.874000072479248 -27.56599998474121,-11.623000144958496 C-28.250999450683594,-12.906999588012695 -28.68400001525879,-13.925000190734863 -28.941999435424805,-14.730999946594238 C-29.43400001525879,-16.628999710083008 -29.114999771118164,-17.37299919128418 -28.80699920654297,-17.65999984741211 C-28.679000854492188,-17.780000686645508 -28.514999389648438,-17.858999252319336 -28.33300018310547,-17.902999877929688 C-28.325000762939453,-17.9060001373291 -28.31599998474121,-17.909000396728516 -28.30699920654297,-17.909000396728516 C-28.30699920654297,-17.909000396728516 -28.301000595092773,-17.909000396728516 -28.301000595092773,-17.909000396728516 C-28.08099937438965,-17.952999114990234 -27.858999252319336,-17.952999114990234 -27.663000106811523,-17.937999725341797 C-27.47800064086914,-17.920000076293945 -27.288000106811523,-17.88800048828125 -27.10099983215332,-17.8439998626709 C-26.63599967956543,-17.732999801635742 -26.195999145507812,-17.55699920654297 -25.917999267578125,-17.422000885009766 C-25.464000701904297,-14.494000434875488 -21.836999893188477,-9.706000328063965 -14.418999671936035,-2.125 C-14.418999671936035,-2.125 -13.973999977111816,-2.558000087738037 -13.973999977111816,-2.558000087738037 C-18.93600082397461,-7.626999855041504 -25.232999801635742,-14.482000350952148 -25.339000701904297,-17.944000244140625 C-25.24799919128418,-18.784000396728516 -24.975000381469727,-19.31599998474121 -24.527999877929688,-19.535999298095703 C-24.48699951171875,-19.55299949645996 -24.448999404907227,-19.570999145507812 -24.405000686645508,-19.582000732421875 C-24.402000427246094,-19.582000732421875 -24.39900016784668,-19.582000732421875 -24.39900016784668,-19.584999084472656 C-23.698999404907227,-19.774999618530273 -22.785999298095703,-19.43000030517578 -22.19499969482422,-19.139999389648438 C-22.003999710083008,-19.042999267578125 -21.816999435424805,-18.94099998474121 -21.63800048828125,-18.836000442504883 C-21.61199951171875,-18.82200050354004 -21.5939998626709,-18.809999465942383 -21.5939998626709,-18.809999465942383 C-21.066999435424805,-18.493999481201172 -20.607999801635742,-18.15999984741211 -20.320999145507812,-17.926000595092773 C-18.32200050354004,-13.666999816894531 -10.373000144958496,-5.171999931335449 -10.034000396728516,-4.813000202178955 C-10.034000396728516,-4.813000202178955 -9.579999923706055,-5.236999988555908 -9.579999923706055,-5.236999988555908 C-9.659000396728516,-5.322000026702881 -17.10700035095215,-13.279000282287598 -19.4689998626709,-17.621999740600586 C-19.4689998626709,-17.621999740600586 -19.791000366210938,-18.259000778198242 -19.791000366210938,-18.259000778198242 C-19.910999298095703,-18.520000457763672 -20.0049991607666,-18.750999450683594 -20.077999114990234,-18.952999114990234 C-20.264999389648438,-19.533000946044922 -20.30900001525879,-20.084999084472656 -20.06599998474121,-20.316999435424805 C-19.875999450683594,-20.499000549316406 -19.16699981689453,-20.770000457763672 -16.687999725341797,-19.38599967956543 C-14.829000473022461,-18.350000381469727 -12.524999618530273,-15.812999725341797 -9.857999801635742,-12.87399959564209 C-5.770999908447266,-8.37399959564209 -0.6859999895095825,-2.7760000228881836 5.598999977111816,0.6389999985694885 C9.793999671936035,2.9189999103546143 14.295999526977539,2.7929999828338623 18.527000427246094,-0.06300000101327896 C21.11400032043457,-1.809000015258789 23.520999908447266,-4.497000217437744 24.937000274658203,-7.336999893188477 C24.937000274658203,-7.336999893188477 24.39900016784668,-7.622000217437744 24.39900016784668,-7.622000217437744 C23.03700065612793,-5.0320000648498535 20.895000457763672,-2.3980000019073486 18.506000518798828,-0.7860000133514404 C14.475000381469727,1.9359999895095825 9.878999710083008,2.257999897003174 5.894000053405762,0.09200000017881393 C-0.296999990940094,-3.2709999084472656 -5.343999862670898,-8.82800006866455 -9.39900016784668,-13.293000221252441 C-12.104000091552734,-16.268999099731445 -14.437000274658203,-18.841999053955078 -16.386999130249023,-19.93000030517578 C-16.97800064086914,-20.26099967956543 -17.507999420166016,-20.518999099731445 -17.98200035095215,-20.70599937438965 C-18.172000885009766,-20.798999786376953 -19.854999542236328,-21.604000091552734 -20.607999801635742,-20.87299919128418 C-20.979999542236328,-20.51300048828125 -21.025999069213867,-19.898000717163086 -20.753999710083008,-19.01099967956543 C-20.90999984741211,-19.11400032043457 -21.07900047302246,-19.222000122070312 -21.257999420166016,-19.33099937438965 C-21.29599952697754,-19.354000091552734 -21.606000900268555,-19.55299949645996 -22.051000595092773,-19.757999420166016 C-22.934999465942383,-20.179000854492188 -23.92799949645996,-20.457000732421875 -24.70599937438965,-20.135000228881836 C-25.148000717163086,-19.976999282836914 -25.485000610351562,-19.66699981689453 -25.709999084472656,-19.209999084472656 C-25.868999481201172,-18.88800048828125 -25.95599937438965,-18.525999069213867 -25.968000411987305,-18.118999481201172 C-26.216999053955078,-18.22100067138672 -26.554000854492188,-18.3439998626709 -26.924999237060547,-18.434999465942383 C-26.957000732421875,-18.444000244140625 -27.305999755859375,-18.542999267578125 -27.756999969482422,-18.56100082397461 C-27.756999969482422,-18.56100082397461 -27.829999923706055,-18.56100082397461 -27.829999923706055,-18.56100082397461 C-27.829999923706055,-18.56100082397461 -27.94099998474121,-18.56100082397461 -27.94099998474121,-18.56100082397461 C-27.993999481201172,-18.56100082397461 -28.04599952697754,-18.558000564575195 -28.09600067138672,-18.55500030517578 C-28.111000061035156,-18.55500030517578 -28.121999740600586,-18.552000045776367 -28.136999130249023,-18.552000045776367 C-28.190000534057617,-18.54599952697754 -28.2450008392334,-18.540000915527344 -28.29800033569336,-18.53499984741211 C-28.325000762939453,-18.531999588012695 -28.35099983215332,-18.525999069213867 -28.37700080871582,-18.520000457763672 C-28.41200065612793,-18.513999938964844 -28.44499969482422,-18.507999420166016 -28.479999542236328,-18.499000549316406 C-28.84600067138672,-18.41699981689453 -29.208999633789062,-18.24799919128418 -29.481000900268555,-17.91200065612793 C-30.040000915527344,-17.22599983215332 -30.059999465942383,-16.10300064086914 -29.538999557495117,-14.506999969482422 C-29.367000579833984,-13.857999801635742 -29.121000289916992,-13.131999969482422 -28.79599952697754,-12.321999549865723 C-29.177000045776367,-12.472999572753906 -29.615999221801758,-12.543999671936035 -29.95199966430664,-12.291999816894531 C-30.427000045776367,-11.942000389099121 -30.860000610351562,-10.968999862670898 -29.14699935913086,-6.5970001220703125 C-27.707000732421875,-2.9159998893737793 -23.76099967956543,3.503999948501587 -17.381999969482422,9.484000205993652 C-16.06999969482422,10.711999893188477 -14.54800033569336,12.020000457763672 -12.831999778747559,13.295999526977539 C-8.005000114440918,16.89299964904785 -1.656000018119812,20.2549991607666 5.7769999504089355,21.016000747680664 C11.527000427246094,21.604000091552734 22.386999130249023,21.29199981689453 30.55500030517578,12.57699966430664 C30.68400001525879,12.439000129699707 30.725000381469727,12.388999938964844 30.85099983215332,12.25 C30.860000610351562,12.244000434875488 30.58799934387207,11.918000221252441 30.444000244140625,11.772000312805176z"></path></g></g><g transform="matrix(1,0,0,1,0,0)" opacity="1" style="display: block;"><g opacity="1" transform="matrix(1,0,0,1,90.71199798583984,109.14900207519531)"><path fill="rgb(180,183,200)" fill-opacity="1" d=" M41.22800064086914,4.459000110626221 C34.26499938964844,-22.641000747680664 2.828000068664551,-19.826000213623047 2.552999973297119,-19.798999786376953 C2.552999973297119,-19.798999786376953 2.4100000858306885,-19.711000442504883 2.177999973297119,-19.591999053955078 C0.9430000185966492,-18.941999435424805 -0.5509999990463257,-18.992000579833984 -1.7280000448226929,-19.743999481201172 C-1.7869999408721924,-19.781999588012695 -1.819000005722046,-19.80500030517578 -1.8220000267028809,-19.808000564575195 C-1.8220000267028809,-19.808000564575195 -34.23400115966797,-22.763999938964844 -41.22800064086914,4.452000141143799 C-41.22800064086914,4.452000141143799 -26.104999542236328,4.452000141143799 -26.104999542236328,4.452000141143799 C-26.104999542236328,4.452000141143799 -30.608999252319336,22.757999420166016 -30.608999252319336,22.757999420166016 C-30.608999252319336,22.757999420166016 28.388999938964844,22.763999938964844 28.388999938964844,22.763999938964844 C28.388999938964844,22.763999938964844 25.20599937438965,4.459000110626221 25.20599937438965,4.459000110626221 C25.20599937438965,4.459000110626221 41.22800064086914,4.459000110626221 41.22800064086914,4.459000110626221z"></path></g></g><g transform="matrix(1,0,0,1,0,0)" opacity="1" style="display: block;"><g opacity="1" transform="matrix(1,0,0,1,88.59300231933594,71.0250015258789)"><path fill="rgb(19,16,33)" fill-opacity="1" d=" M1.5379999876022339,4.0970001220703125 C1.5379999876022339,4.0970001220703125 -1.5390000343322754,4.1529998779296875 -1.5390000343322754,4.1529998779296875 C-1.5390000343322754,4.1529998779296875 0.004999999888241291,-4.1529998779296875 0.004999999888241291,-4.1529998779296875 C0.004999999888241291,-4.1529998779296875 0.6629999876022339,-4.0289998054504395 0.6629999876022339,-4.0289998054504395 C0.6629999876022339,-4.0289998054504395 -0.7310000061988831,3.4679999351501465 -0.7310000061988831,3.4679999351501465 C-0.7310000061988831,3.4679999351501465 1.5269999504089355,3.427000045776367 1.5269999504089355,3.427000045776367 C1.5269999504089355,3.427000045776367 1.5379999876022339,4.0970001220703125 1.5379999876022339,4.0970001220703125z"></path></g><g opacity="1" transform="matrix(1,0,0,1,92.0260009765625,75.61599731445312)"><path fill="rgb(19,16,33)" fill-opacity="1" d=" M11.364999771118164,-3.1389999389648438 C11.218000411987305,-4.702000141143799 10.779000282287598,-6.236000061035156 10.03499984741211,-7.669000148773193 C8.519000053405762,-10.595999717712402 5.953999996185303,-12.755999565124512 2.811000108718872,-13.753999710083008 C-0.3310000002384186,-14.75100040435791 -3.6730000972747803,-14.46500015258789 -6.60099983215332,-12.949000358581543 C-9.527999877929688,-11.432999610900879 -11.689000129699707,-8.869999885559082 -12.687000274658203,-5.7270002365112305 C-13.685999870300293,-2.5859999656677246 -13.39900016784668,0.7559999823570251 -11.881999969482422,3.681999921798706 C-10.366000175476074,6.609000205993652 -7.801000118255615,8.770000457763672 -4.6570000648498535,9.767999649047852 C-4.375999927520752,9.857999801635742 -4.0920000076293945,9.934000015258789 -3.808000087738037,10.00100040435791 C-3.808000087738037,10.00100040435791 -3.808000087738037,14.75100040435791 -3.808000087738037,14.75100040435791 C-3.808000087738037,14.75100040435791 -3.138000011444092,14.75100040435791 -3.138000011444092,14.75100040435791 C-3.138000011444092,14.75100040435791 -3.138000011444092,10.145000457763672 -3.138000011444092,10.145000457763672 C-2.4000000953674316,10.279000282287598 -1.6629999876022339,10.345999717712402 -0.9300000071525574,10.345999717712402 C-0.19599999487400055,10.345999717712402 0.5339999794960022,10.277999877929688 1.246999979019165,10.149999618530273 C1.246999979019165,10.149999618530273 1.246999979019165,14.75100040435791 1.246999979019165,14.75100040435791 C1.246999979019165,14.75100040435791 1.9170000553131104,14.75100040435791 1.9170000553131104,14.75100040435791 C1.9170000553131104,14.75100040435791 1.9170000553131104,10.010000228881836 1.9170000553131104,10.010000228881836 C5.683000087738037,9.112000465393066 8.944000244140625,6.466000080108643 10.48900032043457,2.697000026702881 C11.701000213623047,2.627000093460083 12.807999610900879,1.8250000476837158 13.194000244140625,0.6019999980926514 C13.685999870300293,-0.9399999976158142 12.866000175476074,-2.5859999656677246 11.364999771118164,-3.1389999389648438z M12.555999755859375,0.3959999978542328 C12.184000015258789,1.569000005722046 11.156999588012695,2.2769999504089355 9.979999542236328,2.005000114440918 C9.979999542236328,2.005000114440918 9.789999961853027,2.625999927520752 9.789999961853027,2.625999927520752 C7.447999954223633,8.0600004196167 1.305999994277954,10.954999923706055 -4.452000141143799,9.128000259399414 C-7.422999858856201,8.185999870300293 -9.85099983215332,6.144999980926514 -11.28499984741211,3.375999927520752 C-12.718999862670898,0.6100000143051147 -12.98900032043457,-2.5510001182556152 -12.045999526977539,-5.520999908447266 C-11.104000091552734,-8.491999626159668 -9.0600004196167,-10.918000221252441 -6.290999889373779,-12.35200023651123 C-4.607999801635742,-13.223999977111816 -2.7780001163482666,-13.666000366210938 -0.9330000281333923,-13.666000366210938 C0.25200000405311584,-13.666000366210938 1.4470000267028809,-13.480999946594238 2.611999988555908,-13.11299991607666 C5.583000183105469,-12.170000076293945 8.010000228881836,-10.128000259399414 9.444000244140625,-7.359000205993652 C10.112000465393066,-6.072000026702881 10.522000312805176,-4.702000141143799 10.680000305175781,-3.302999973297119 C10.57699966430664,-3.315000057220459 10.472000122070312,-3.3239998817443848 10.368000030517578,-3.3269999027252197 C10.4399995803833,-3.1040000915527344 10.456999778747559,-2.869999885559082 10.406999588012695,-2.6540000438690186 C10.614999771118164,-2.6470000743865967 10.826000213623047,-2.61299991607666 11.034000396728516,-2.5450000762939453 C12.262999534606934,-2.1589999198913574 12.947999954223633,-0.8360000252723694 12.555999755859375,0.3959999978542328z"></path></g><g opacity="1" transform="matrix(1,0,0,1,102.31300354003906,75.13899993896484)"><path fill="rgb(19,16,33)" fill-opacity="1" d=" M-0.6610000133514404,-0.8460000157356262 C-1.5709999799728394,-0.10899999737739563 -1.4989999532699585,1.3179999589920044 -1.496000051498413,1.378999948501587 C-1.496000051498413,1.378999948501587 -0.8259999752044678,1.340000033378601 -0.8259999752044678,1.340000033378601 C-0.8259999752044678,1.3279999494552612 -0.875,0.1899999976158142 -0.2370000034570694,-0.32499998807907104 C0.1289999932050705,-0.6209999918937683 0.6759999990463257,-0.6729999780654907 1.3930000066757202,-0.4740000069141388 C1.3930000066757202,-0.4740000069141388 1.5720000267028809,-1.1200000047683716 1.5720000267028809,-1.1200000047683716 C0.6299999952316284,-1.378000020980835 -0.11900000274181366,-1.284999966621399 -0.6610000133514404,-0.8460000157356262z"></path></g></g><g transform="matrix(1,0,0,1,0,0)" opacity="1" style="display: block;"><g opacity="1" transform="matrix(1,0,0,1,93.29499816894531,75.30599975585938)"><path fill="rgb(19,16,33)" fill-opacity="1" d=" M-1.3420000076293945,2.2170000076293945 C-1.4709999561309814,2.246000051498413 -1.6030000448226929,2.2699999809265137 -1.7380000352859497,2.2929999828338623 C-1.7380000352859497,2.2929999828338623 -1.8459999561309814,1.6319999694824219 -1.8459999561309814,1.6319999694824219 C-0.578000009059906,1.4240000247955322 0.2409999966621399,0.9649999737739563 0.5899999737739563,0.26499998569488525 C1.093999981880188,-0.7419999837875366 0.460999995470047,-1.965000033378601 0.45500001311302185,-1.9800000190734863 C0.45500001311302185,-1.9800000190734863 1.0470000505447388,-2.2929999828338623 1.0470000505447388,-2.2929999828338623 C1.0789999961853027,-2.2309999465942383 1.8459999561309814,-0.7590000033378601 1.1929999589920044,0.5580000281333923 C0.7829999923706055,1.3799999952316284 -0.0689999982714653,1.9390000104904175 -1.3420000076293945,2.2170000076293945z"></path></g></g><g transform="matrix(1,0,0,1,0,0)" opacity="1" style="display: block;"><g opacity="1" transform="matrix(1,0,0,1,89.53900146484375,63.50299835205078)"><path fill="rgb(19,16,33)" fill-opacity="1" d=" M9.137999534606934,12.46500015258789 C8.600000381469727,12.800999641418457 7.908999919891357,12.371999740600586 7.98799991607666,11.739999771118164 C8.086999893188477,10.944000244140625 8.098999977111816,9.652000427246094 7.843999862670898,7.565999984741211 C7.2179999351501465,2.4149999618530273 -4.190999984741211,9.777000427246094 -10.121999740600586,2.4539999961853027 C-16.052000045776367,-4.867000102996826 -3.812999963760376,-12.802000045776367 -1.6440000534057617,-9.42199993133545 C0.5260000228881836,-6.045000076293945 -3.0369999408721924,-5.034999847412109 -0.6660000085830688,-4.2220001220703125 C1.7050000429153442,-3.4089999198913574 16.052000045776367,-4.3379998207092285 13.833000183105469,8.038000106811523 C13.836000442504883,8.038000106811523 11.222000122070312,11.163000106811523 9.137999534606934,12.46500015258789z"></path></g></g><g transform="matrix(1,0,0,1,0,0)" opacity="1" style="display: block;"><g opacity="1" transform="matrix(1,0,0,1,90.16100311279297,160.625)"><path fill="rgb(19,16,33)" fill-opacity="1" d=" M0,-12.710000038146973 C0,-12.710000038146973 -35.95199966430664,0 -35.95199966430664,0 C-35.95199966430664,0 0,12.708999633789062 0,12.708999633789062 C0,12.708999633789062 35.95199966430664,0 35.95199966430664,0 C35.95199966430664,0 0,-12.710000038146973 0,-12.710000038146973z"></path></g><g opacity="1" transform="matrix(1,0,0,1,90.16100311279297,166.9969940185547)"><path fill="rgb(19,16,33)" fill-opacity="1" d=" M36.051998138427734,-6.090000152587891 C36.051998138427734,-6.090000152587891 0,6.656000137329102 0,6.656000137329102 C0,6.656000137329102 -36.051998138427734,-6.090000152587891 -36.051998138427734,-6.090000152587891 C-36.051998138427734,-6.090000152587891 -35.85100173950195,-6.656000137329102 -35.85100173950195,-6.656000137329102 C-35.85100173950195,-6.656000137329102 0,6.01800012588501 0,6.01800012588501 C0,6.01800012588501 35.85200119018555,-6.656000137329102 35.85200119018555,-6.656000137329102 C35.85200119018555,-6.656000137329102 36.051998138427734,-6.090000152587891 36.051998138427734,-6.090000152587891z"></path></g></g><g transform="matrix(1,0,0,1,0,0)" opacity="1" style="display: block;"><g opacity="1" transform="matrix(1,0,0,1,90.16100311279297,144.8780059814453)"><path fill="rgb(225,228,240)" fill-opacity="1" d=" M0,-12.710000038146973 C0,-12.710000038146973 -35.95199966430664,0.0010000000474974513 -35.95199966430664,0.0010000000474974513 C-35.95199966430664,0.0010000000474974513 0,12.710000038146973 0,12.710000038146973 C0,12.710000038146973 35.95199966430664,0.0010000000474974513 35.95199966430664,0.0010000000474974513 C35.95199966430664,0.0010000000474974513 0,-12.710000038146973 0,-12.710000038146973z"></path></g><g opacity="1" transform="matrix(1,0,0,1,90.16100311279297,151.2530059814453)"><path fill="rgb(19,16,33)" fill-opacity="1" d=" M36.051998138427734,-6.090000152587891 C36.051998138427734,-6.090000152587891 0,6.65500020980835 0,6.65500020980835 C0,6.65500020980835 -36.051998138427734,-6.090000152587891 -36.051998138427734,-6.090000152587891 C-36.051998138427734,-6.090000152587891 -35.85100173950195,-6.65500020980835 -35.85100173950195,-6.65500020980835 C-35.85100173950195,-6.65500020980835 0,6.019000053405762 0,6.019000053405762 C0,6.019000053405762 35.85200119018555,-6.65500020980835 35.85200119018555,-6.65500020980835 C35.85200119018555,-6.65500020980835 36.051998138427734,-6.090000152587891 36.051998138427734,-6.090000152587891z"></path></g></g><g transform="matrix(1,0,0,1,0,0)" opacity="1" style="display: block;"><g opacity="1" transform="matrix(1,0,0,1,90.16100311279297,129.13600158691406)"><path fill="rgb(255,255,255)" fill-opacity="1" d=" M0,-12.708999633789062 C0,-12.708999633789062 -35.95199966430664,0.0010000000474974513 -35.95199966430664,0.0010000000474974513 C-35.95199966430664,0.0010000000474974513 0,12.710000038146973 0,12.710000038146973 C0,12.710000038146973 35.95199966430664,0.0010000000474974513 35.95199966430664,0.0010000000474974513 C35.95199966430664,0.0010000000474974513 0,-12.708999633789062 0,-12.708999633789062z"></path></g><g opacity="1" transform="matrix(1,0,0,1,90.16100311279297,135.50799560546875)"><path fill="rgb(19,16,33)" fill-opacity="1" d=" M36.051998138427734,-6.090000152587891 C36.051998138427734,-6.090000152587891 0,6.65500020980835 0,6.65500020980835 C0,6.65500020980835 -36.051998138427734,-6.090000152587891 -36.051998138427734,-6.090000152587891 C-36.051998138427734,-6.090000152587891 -35.85100173950195,-6.65500020980835 -35.85100173950195,-6.65500020980835 C-35.85100173950195,-6.65500020980835 0,6.019000053405762 0,6.019000053405762 C0,6.019000053405762 35.85200119018555,-6.65500020980835 35.85200119018555,-6.65500020980835 C35.85200119018555,-6.65500020980835 36.051998138427734,-6.090000152587891 36.051998138427734,-6.090000152587891z"></path></g></g><g transform="matrix(1,0,0,1,0,0)" opacity="1" style="display: block;"><g opacity="1" transform="matrix(1,0,0,1,172.3800048828125,50.03499984741211)"><path fill="rgb(98,102,240)" fill-opacity="1" d=" M2.869999885559082,4.494999885559082 C0.38999998569488525,6.074999809265137 -2.9100000858306885,5.34499979019165 -4.489999771118164,2.865000009536743 C-6.079999923706055,0.38499999046325684 -5.349999904632568,-2.9149999618530273 -2.869999885559082,-4.494999885559082 C-0.3799999952316284,-6.074999809265137 2.9100000858306885,-5.34499979019165 4.5,-2.865000009536743 C6.079999923706055,-0.38499999046325684 5.349999904632568,2.9149999618530273 2.869999885559082,4.494999885559082z"></path></g></g><g transform="matrix(1,0,0,1,0,0)" opacity="1" style="display: block;"><g opacity="1" transform="matrix(1,0,0,1,149.34500122070312,31.09000015258789)"><path fill="rgb(98,102,240)" fill-opacity="1" d=" M3.765000104904175,3.7699999809265137 C1.684999942779541,5.849999904632568 -1.6950000524520874,5.849999904632568 -3.7750000953674316,3.7699999809265137 C-5.855000019073486,1.690000057220459 -5.855000019073486,-1.6799999475479126 -3.7750000953674316,-3.7699999809265137 C-1.6950000524520874,-5.849999904632568 1.684999942779541,-5.849999904632568 3.765000104904175,-3.7699999809265137 C5.855000019073486,-1.6799999475479126 5.855000019073486,1.690000057220459 3.765000104904175,3.7699999809265137z"></path></g></g><g transform="matrix(1,0,0,1,0,0)" opacity="1" style="display: block;"><g opacity="1" transform="matrix(1,0,0,1,122.12000274658203,16.969999313354492)"><path fill="rgb(98,102,240)" fill-opacity="1" d=" M1.0099999904632568,5.239999771118164 C-1.8890000581741333,5.789999961853027 -4.678999900817871,3.9000000953674316 -5.239999771118164,1.0099999904632568 C-5.789999961853027,-1.8899999856948853 -3.9000000953674316,-4.679999828338623 -1.0099999904632568,-5.230000019073486 C1.8899999856948853,-5.789999961853027 4.679999828338623,-3.9000000953674316 5.239999771118164,-1 C5.789999961853027,1.8899999856948853 3.9000000953674316,4.679999828338623 1.0099999904632568,5.239999771118164z"></path></g></g><g transform="matrix(1,0,0,1,0,0)" opacity="1" style="display: block;"><g opacity="1" transform="matrix(1,0,0,1,89.96499633789062,11.675000190734863)"><path fill="rgb(98,102,240)" fill-opacity="1" d=" M5.15500020980835,1.3949999809265137 C4.383999824523926,4.235000133514404 1.4550000429153442,5.914999961853027 -1.3849999904632568,5.144999980926514 C-4.235000133514404,4.375 -5.914999961853027,1.4550000429153442 -5.144999980926514,-1.3849999904632568 C-4.375,-4.235000133514404 -1.4450000524520874,-5.914999961853027 1.3949999809265137,-5.144999980926514 C4.235000133514404,-4.375 5.914999961853027,-1.4450000524520874 5.15500020980835,1.3949999809265137z"></path></g></g><g transform="matrix(1,0,0,1,0,0)" opacity="1" style="display: block;"><g opacity="1" transform="matrix(1,0,0,1,57.81999969482422,16.969999313354492)"><path fill="rgb(19,16,33)" fill-opacity="1" d=" M5.210000038146973,1.1100000143051147 C4.599999904632568,3.990000009536743 1.7699999809265137,5.829999923706055 -1.1100000143051147,5.210000038146973 C-3.990000009536743,4.599999904632568 -5.829999923706055,1.7699999809265137 -5.21999979019165,-1.1100000143051147 C-4.60099983215332,-3.990000009536743 -1.7699999809265137,-5.829999923706055 1.1100000143051147,-5.210000038146973 C3.990000009536743,-4.599999904632568 5.829999923706055,-1.7699999809265137 5.210000038146973,1.1100000143051147z"></path></g></g><g transform="matrix(1,0,0,1,0,0)" opacity="1" style="display: block;"><g opacity="1" transform="matrix(1,0,0,1,30.584999084472656,31.09000015258789)"><path fill="rgb(19,16,33)" fill-opacity="1" d=" M5.264999866485596,0.8500000238418579 C4.795000076293945,3.759999990463257 2.055000066757202,5.730000019073486 -0.8550000190734863,5.260000228881836 C-3.755000114440918,4.789999961853027 -5.735000133514404,2.049999952316284 -5.264999866485596,-0.8500000238418579 C-4.784999847412109,-3.759999990463257 -2.055000066757202,-5.730000019073486 0.8550000190734863,-5.260000228881836 C3.765000104904175,-4.789999961853027 5.735000133514404,-2.049999952316284 5.264999866485596,0.8500000238418579z"></path></g></g><g transform="matrix(1,0,0,1,0,0)" opacity="1" style="display: block;"><g opacity="1" transform="matrix(1,0,0,1,7.539999961853027,50.040000915527344)"><path fill="rgb(19,16,33)" fill-opacity="1" d=" M5.210000038146973,1.149999976158142 C4.570000171661377,4.019999980926514 1.7300000190734863,5.840000152587891 -1.149999976158142,5.199999809265137 C-4.019999980926514,4.570000171661377 -5.840000152587891,1.7300000190734863 -5.210000038146973,-1.149999976158142 C-4.570000171661377,-4.03000020980835 -1.7300000190734863,-5.840000152587891 1.149999976158142,-5.210000038146973 C4.03000020980835,-4.570000171661377 5.840000152587891,-1.7300000190734863 5.210000038146973,1.149999976158142z"></path></g></g></g></svg>