<svg xmlns="http://www.w3.org/2000/svg" xmlns:xlink="http://www.w3.org/1999/xlink" viewBox="0 0 180 180" width="180" height="180" preserveAspectRatio="xMidYMid meet" style="width: 100%; height: 100%; transform: translate3d(0px, 0px, 0px); content-visibility: visible;"><defs><clipPath id="__lottie_element_40"><rect width="180" height="180" x="0" y="0"></rect></clipPath></defs><g clip-path="url(#__lottie_element_40)"><g transform="matrix(1,0,0,1,0,0)" opacity="1" style="display: block;"><g opacity="1" transform="matrix(1,0,0,1,138.69700622558594,137.54800415039062)"><path fill="rgb(255,255,255)" fill-opacity="1" d=" M14.170000076293945,34.55099868774414 C14.170000076293945,34.55099868774414 -15.807999610900879,-3.947000026702881 -19.176000595092773,-6.559000015258789 C-22.54400062561035,-9.17199993133545 -41.19900131225586,-24.503999710083008 -37.19499969482422,-29.64299964904785 C-33.37099838256836,-34.551998138427734 -22.214000701904297,-20.698999404907227 -15.98900032043457,-17.51099967956543 C-11.027000427246094,-14.968000411987305 -5.860000133514404,-17.933000564575195 4.934000015258789,-25.233999252319336 C13.022000312805176,-30.704999923706055 15.395999908447266,-32.11399841308594 16.834999084472656,-30.270999908447266 C19.360000610351562,-27.031999588012695 8.699999809265137,-23.082000732421875 9.425000190734863,-15.631999969482422 C10.458000183105469,-5.00600004196167 41.19900131225586,17.22599983215332 41.19900131225586,17.22599983215332"></path></g><g opacity="1" transform="matrix(1,0,0,1,140.27699279785156,138.69900512695312)"><path fill="rgb(19,16,33)" fill-opacity="1" d=" M12.59000015258789,33.70000076293945 C12.50100040435791,33.70000076293945 12.411999702453613,33.6609992980957 12.354000091552734,33.584999084472656 C12.053999900817871,33.20000076293945 -17.638999938964844,-4.914000034332275 -20.93899917602539,-7.473999977111816 C-21.117000579833984,-7.611999988555908 -38.70100021362305,-21.323999404907227 -39.5989990234375,-28.492000579833984 C-39.722999572753906,-29.482999801635742 -39.5260009765625,-30.319000244140625 -39.012001037597656,-30.979000091552734 C-38.48500061035156,-31.65399932861328 -37.801998138427734,-32.03799819946289 -36.97800064086914,-32.11899948120117 C-33.909000396728516,-32.42599868774414 -29.36199951171875,-28.488000869750977 -24.952999114990234,-24.68600082397461 C-22.158000946044922,-22.274999618530273 -19.517000198364258,-19.996999740600586 -17.43199920654297,-18.929000854492188 C-12.659000396728516,-16.483999252319336 -7.735000133514404,-19.24799919128418 3.186000108718872,-26.634000778198242 C11.234000205993652,-32.077999114990234 13.859000205993652,-33.70000076293945 15.491000175476074,-31.607999801635742 C16.808000564575195,-29.91900062561035 15.048999786376953,-28.128999710083008 13.01200008392334,-26.05699920654297 C10.673999786376953,-23.677000045776367 7.763999938964844,-20.715999603271484 8.144000053405762,-16.812000274658203 C9.152000427246094,-6.440999984741211 39.487998962402344,15.609000205993652 39.79499816894531,15.831000328063965 C39.93000030517578,15.928000450134277 39.95899963378906,16.115999221801758 39.86199951171875,16.25 C39.763999938964844,16.385000228881836 39.57500076293945,16.41200065612793 39.444000244140625,16.316999435424805 C39.36600112915039,16.261999130249023 31.656999588012695,10.67300033569336 23.92099952697754,3.8550000190734863 C13.491000175476074,-5.334000110626221 7.982999801635742,-12.269000053405762 7.546000003814697,-16.753000259399414 C7.139999866485596,-20.937000274658203 10.157999992370605,-24.009000778198242 12.583999633789062,-26.47800064086914 C14.708999633789062,-28.639999389648438 15.963000297546387,-30.027000427246094 15.019000053405762,-31.238000869750977 C13.784000396728516,-32.816001892089844 11.60099983215332,-31.601999282836914 3.5220000743865967,-26.13800048828125 C-7.60699987411499,-18.610000610351562 -12.644000053405762,-15.800999641418457 -17.70599937438965,-18.395999908447266 C-19.854999542236328,-19.496000289916992 -22.520999908447266,-21.79599952697754 -25.34600067138672,-24.231000900268555 C-29.65999984741211,-27.951000213623047 -34.125,-31.777000427246094 -36.91999816894531,-31.523000717163086 C-37.582000732421875,-31.457000732421875 -38.111000061035156,-31.158000946044922 -38.53900146484375,-30.610000610351562 C-38.957000732421875,-30.072999954223633 -39.10900115966797,-29.40399932861328 -39.00400161743164,-28.566999435424805 C-38.284000396728516,-22.820999145507812 -25.454999923706055,-11.736000061035156 -20.57200050354004,-7.947999954223633 C-17.21299934387207,-5.3429999351501465 11.60200023651123,31.642000198364258 12.826000213623047,33.215999603271484 C12.928999900817871,33.34600067138672 12.904999732971191,33.53499984741211 12.774999618530273,33.637001037597656 C12.720000267028809,33.67900085449219 12.654000282287598,33.70000076293945 12.59000015258789,33.70000076293945z"></path></g></g><g transform="matrix(1,0,0,1,0,0)" opacity="1" style="display: block;"><g opacity="1" transform="matrix(1,0,0,1,129.61199951171875,125.41799926757812)"><path fill="rgb(255,255,255)" fill-opacity="1" d=" M-3.0769999027252197,5.989999771118164 C-3.0769999027252197,5.989999771118164 -11.4399995803833,-13.821000099182129 -7.422999858856201,-16.027000427246094 C-3.562999963760376,-18.148000717163086 10.652000427246094,1.6649999618530273 11.439000129699707,18.148000717163086"></path></g><g opacity="1" transform="matrix(1,0,0,1,130.29600524902344,126.32599639892578)"><path fill="rgb(19,16,33)" fill-opacity="1" d=" M10.755000114440918,17.540000915527344 C10.595999717712402,17.540000915527344 10.461999893188477,17.416000366210938 10.454000473022461,17.256000518798828 C9.777000427246094,3.061000108718872 -0.9700000286102295,-13.479000091552734 -6.090000152587891,-16.34600067138672 C-6.646999835968018,-16.656999588012695 -7.427999973297119,-16.9689998626709 -7.9629998207092285,-16.67300033569336 C-11.062999725341797,-14.970000267028809 -5.7829999923706055,-0.47699999809265137 -3.4860000610351562,4.965000152587891 C-3.421999931335449,5.117000102996826 -3.493000030517578,5.293000221252441 -3.6459999084472656,5.35699987411499 C-3.7990000247955322,5.420000076293945 -3.9749999046325684,5.35099983215332 -4.039000034332275,5.197000026702881 C-4.059000015258789,5.1479997634887695 -6.1539998054504395,0.1720000058412552 -7.728000164031982,-5.01200008392334 C-9.913999557495117,-12.204999923706055 -10.085000038146973,-16.190000534057617 -8.251999855041504,-17.19700050354004 C-7.629000186920166,-17.540000915527344 -6.802999973297119,-17.43000030517578 -5.797999858856201,-16.868000030517578 C-0.4429999887943268,-13.869999885559082 10.355999946594238,2.5889999866485596 11.053999900817871,17.226999282836914 C11.062000274658203,17.39299964904785 10.9350004196167,17.531999588012695 10.770000457763672,17.540000915527344 C10.770000457763672,17.540000915527344 10.755000114440918,17.540000915527344 10.755000114440918,17.540000915527344z"></path></g><g opacity="1" transform="matrix(1,0,0,1,135.47000122070312,107.41000366210938)"><path fill="rgb(255,255,255)" fill-opacity="1" d=" M-0.972000002861023,15.093999862670898 C0.6399999856948853,4.494999885559082 3.4760000705718994,-0.0729999989271164 6.254000186920166,-5.609000205993652 C7.835000038146973,-8.758999824523926 7.290999889373779,-15.093000411987305 3.3570001125335693,-13.16100025177002 C-4.923999786376953,-9.093000411987305 -7.835000038146973,5.114999771118164 -7.835000038146973,5.114999771118164 C-7.835000038146973,5.114999771118164 -0.972000002861023,15.093999862670898 -0.972000002861023,15.093999862670898z"></path></g><g opacity="1" transform="matrix(1,0,0,1,135.27999877929688,108.01399993896484)"><path fill="rgb(19,16,33)" fill-opacity="1" d=" M-0.7829999923706055,14.789999961853027 C-0.8809999823570251,14.789999961853027 -0.9729999899864197,14.743000030517578 -1.0299999713897705,14.65999984741211 C-1.0299999713897705,14.65999984741211 -7.892000198364258,4.681000232696533 -7.892000198364258,4.681000232696533 C-7.938000202178955,4.613999843597412 -7.955999851226807,4.531000137329102 -7.939000129699707,4.451000213623047 C-7.818999767303467,3.865000009536743 -4.9039998054504395,-9.947999954223633 3.4140000343322754,-14.034000396728516 C4.947999954223633,-14.789999961853027 5.9039998054504395,-14.312999725341797 6.431000232696533,-13.779000282287598 C7.954999923706055,-12.241000175476074 7.829999923706055,-8.307999610900879 6.710999965667725,-6.077000141143799 C6.394000053405762,-5.446000099182129 6.074999809265137,-4.826000213623047 5.758999824523926,-4.209000110626221 C3.2790000438690186,0.6259999871253967 0.9350000023841858,5.192999839782715 -0.4860000014305115,14.53499984741211 C-0.5049999952316284,14.656999588012695 -0.5960000157356262,14.755000114440918 -0.7160000205039978,14.781999588012695 C-0.7379999756813049,14.788000106811523 -0.7609999775886536,14.789999961853027 -0.7829999923706055,14.789999961853027z M-7.324999809265137,4.447999954223633 C-7.324999809265137,4.447999954223633 -0.9629999995231628,13.699000358581543 -0.9629999995231628,13.699000358581543 C0.4830000102519989,4.760000228881836 2.7880001068115234,0.26600000262260437 5.22599983215332,-4.482999801635742 C5.540999889373779,-5.098999977111816 5.859000205993652,-5.716000080108643 6.173999786376953,-6.3470001220703125 C7.199999809265137,-8.390000343322754 7.322999954223633,-12.027000427246094 6.005000114440918,-13.357000350952148 C5.439000129699707,-13.928999900817871 4.65500020980835,-13.97599983215332 3.677999973297119,-13.494999885559082 C-3.9690001010894775,-9.73900032043457 -7.013000011444092,3.049999952316284 -7.324999809265137,4.447999954223633z"></path></g><g opacity="1" transform="matrix(1,0,0,1,141.281005859375,109.68000030517578)"><path fill="rgb(255,255,255)" fill-opacity="1" d=" M-6.784999847412109,12.824999809265137 C-6.4079999923706055,5.664999961853027 1.496000051498413,-12.824999809265137 3.9210000038146973,-9.829000473022461 C6.783999919891357,-6.290999889373779 -1.215999960899353,10.355999946594238 -1.215999960899353,10.355999946594238"></path></g><g opacity="1" transform="matrix(1,0,0,1,141.28599548339844,110.96900177001953)"><path fill="rgb(19,16,33)" fill-opacity="1" d=" M-6.789000034332275,11.836000442504883 C-6.789000034332275,11.836000442504883 -6.804999828338623,11.836000442504883 -6.804999828338623,11.836000442504883 C-6.9710001945495605,11.82699966430664 -7.0980000495910645,11.685999870300293 -7.089000225067139,11.520999908447266 C-6.690000057220459,3.9639999866485596 0.06499999761581421,-10.755999565124512 2.9059998989105225,-11.678999900817871 C3.3929998874664307,-11.836000442504883 3.8299999237060547,-11.70300006866455 4.150000095367432,-11.307000160217285 C7.098999977111816,-7.663000106811523 -0.6190000176429749,8.51099967956543 -0.9490000009536743,9.196999549865723 C-1.0210000276565552,9.347999572753906 -1.2009999752044678,9.41100025177002 -1.350000023841858,9.338000297546387 C-1.4989999532699585,9.265999794006348 -1.5609999895095825,9.086999893188477 -1.4900000095367432,8.937999725341797 C0.7120000123977661,4.355000019073486 5.934999942779541,-8.14799976348877 3.684000015258789,-10.930000305175781 C3.5179998874664307,-11.135000228881836 3.3389999866485596,-11.185999870300293 3.0920000076293945,-11.107999801635742 C0.3009999990463257,-10.20199966430664 -6.146999835968018,5.046000003814697 -6.489999771118164,11.552000045776367 C-6.499000072479248,11.711999893188477 -6.630000114440918,11.836000442504883 -6.789000034332275,11.836000442504883z"></path></g><g opacity="1" transform="matrix(1,0,0,1,141.2519989013672,120.11100006103516)"><path fill="rgb(19,16,33)" fill-opacity="1" d=" M-3.5209999084472656,1.656000018119812 C-3.615999937057495,1.656000018119812 -3.7100000381469727,1.6109999418258667 -3.7679998874664307,1.5260000228881836 C-3.861999988555908,1.3890000581741333 -3.828000068664551,1.2029999494552612 -3.690999984741211,1.1089999675750732 C-3.5269999504089355,0.9959999918937683 0.36000001430511475,-1.6549999713897705 3.6070001125335693,-0.7860000133514404 C3.7669999599456787,-0.7429999709129333 3.86299991607666,-0.5789999961853027 3.819999933242798,-0.4189999997615814 C3.7769999504089355,-0.257999986410141 3.611999988555908,-0.16099999845027924 3.453000068664551,-0.20600000023841858 C0.48500001430511475,-0.9980000257492065 -3.312000036239624,1.5770000219345093 -3.3510000705718994,1.6030000448226929 C-3.4030001163482666,1.6390000581741333 -3.4619998931884766,1.656000018119812 -3.5209999084472656,1.656000018119812z"></path></g><g opacity="1" transform="matrix(1,0,0,1,155.23300170898438,153.2480010986328)"><path fill="rgb(180,183,200)" fill-opacity="1" d=" M-14.557000160217285,3.3310000896453857 C-14.557000160217285,3.3310000896453857 -0.25,-7.136000156402588 6.934000015258789,-12.920999526977539 C6.934000015258789,-12.920999526977539 14.557000160217285,-6.3379998207092285 14.557000160217285,-6.3379998207092285 C14.557000160217285,-6.3379998207092285 -0.8920000195503235,7.5269999504089355 -7.000999927520752,12.920999526977539 C-7.000999927520752,12.920999526977539 -14.557000160217285,3.3310000896453857 -14.557000160217285,3.3310000896453857z"></path></g><g opacity="1" transform="matrix(1,0,0,1,155.22900390625,153.23500061035156)"><path fill="rgb(19,16,33)" fill-opacity="1" d=" M-6.997000217437744,13.234000205993652 C-7.00600004196167,13.234000205993652 -7.014999866485596,13.232999801635742 -7.02400016784668,13.232000350952148 C-7.105999946594238,13.223999977111816 -7.182000160217285,13.184000015258789 -7.23199987411499,13.119999885559082 C-7.23199987411499,13.119999885559082 -14.788999557495117,3.5290000438690186 -14.788999557495117,3.5290000438690186 C-14.84000015258789,3.4649999141693115 -14.862000465393066,3.384000062942505 -14.85099983215332,3.302999973297119 C-14.84000015258789,3.2230000495910645 -14.79699993133545,3.1500000953674316 -14.729999542236328,3.1019999980926514 C-14.588000297546387,2.997999906539917 -0.3479999899864197,-7.427000045776367 6.749000072479248,-13.140999794006348 C6.86299991607666,-13.232999801635742 7.0229997634887695,-13.227999687194824 7.133999824523926,-13.135000228881836 C7.133999824523926,-13.135000228881836 14.758000373840332,-6.552000045776367 14.758000373840332,-6.552000045776367 C14.822999954223633,-6.494999885559082 14.859999656677246,-6.413000106811523 14.861000061035156,-6.327000141143799 C14.862000465393066,-6.242000102996826 14.826000213623047,-6.159999847412109 14.76200008392334,-6.1020002365112305 C14.607000350952148,-5.9629998207092285 -0.7580000162124634,7.826000213623047 -6.798999786376953,13.157999992370605 C-6.854000091552734,13.206999778747559 -6.923999786376953,13.234000205993652 -6.997000217437744,13.234000205993652z M-14.12600040435791,3.4019999504089355 C-14.12600040435791,3.4019999504089355 -6.958000183105469,12.49899959564209 -6.958000183105469,12.49899959564209 C-1.2089999914169312,7.418000221252441 12.102999687194824,-4.521999835968018 14.107000350952148,-6.322000026702881 C14.107000350952148,-6.322000026702881 6.931000232696533,-12.517999649047852 6.931000232696533,-12.517999649047852 C0.2919999957084656,-7.190000057220459 -12.199999809265137,1.9900000095367432 -14.12600040435791,3.4019999504089355z"></path></g><g opacity="1" transform="matrix(1,0,0,1,142.85400390625,162.56399536132812)"><path fill="rgb(19,16,33)" fill-opacity="1" d=" M-2.1689999103546143,-6.072000026702881 C-2.1689999103546143,-6.072000026702881 5.466000080108643,3.6110000610351562 5.466000080108643,3.6110000610351562 C5.466000080108643,3.6110000610351562 3.5299999713897705,5.146999835968018 3.5299999713897705,5.146999835968018 C2.364000082015991,6.072999954223633 0.6700000166893005,5.877999782562256 -0.25600001215934753,4.711999893188477 C-0.25600001215934753,4.711999893188477 -4.539999961853027,-0.746999979019165 -4.539999961853027,-0.746999979019165 C-5.466000080108643,-1.9129999876022339 -5.269999980926514,-3.609999895095825 -4.105000019073486,-4.534999847412109 C-4.105000019073486,-4.534999847412109 -2.1689999103546143,-6.072000026702881 -2.1689999103546143,-6.072000026702881z"></path></g></g><g transform="matrix(1,0,0,1,0,0)" opacity="1" style="display: block;"><g opacity="1" transform="matrix(1,0,0,1,38.952999114990234,125.53299713134766)"><path fill="rgb(180,183,200)" fill-opacity="1" d=" M-10.822999954223633,10.616999626159668 C-4.9629998207092285,16.59600067138672 4.633999824523926,16.69099998474121 10.611000061035156,10.829000473022461 C16.58799934387207,4.966000080108643 16.683000564575195,-4.633999824523926 10.822999954223633,-10.614999771118164 C4.9629998207092285,-16.594999313354492 -4.632999897003174,-16.69099998474121 -10.611000061035156,-10.82699966430664 C-16.58799934387207,-4.965000152587891 -16.683000564575195,4.636000156402588 -10.822999954223633,10.616999626159668z"></path></g></g><g transform="matrix(1,0,0,1,0,0)" opacity="1" style="display: block;"><g opacity="1" transform="matrix(1,0,0,1,29.148000717163086,143.59500122070312)"><path fill="rgb(255,255,255)" fill-opacity="1" d=" M12.868000030517578,13.156000137329102 C12.868000030517578,13.156000137329102 -0.0010000000474974513,9.140000343322754 -0.0010000000474974513,9.140000343322754 C-0.0010000000474974513,9.140000343322754 -12.868000030517578,5.124000072479248 -12.868000030517578,5.124000072479248 C-12.868000030517578,5.124000072479248 -2.9600000381469727,-4.01800012588501 -2.9600000381469727,-4.01800012588501 C-2.9600000381469727,-4.01800012588501 6.952000141143799,-13.156000137329102 6.952000141143799,-13.156000137329102 C6.952000141143799,-13.156000137329102 9.907999992370605,-0.0020000000949949026 9.907999992370605,-0.0020000000949949026 C9.907999992370605,-0.0020000000949949026 12.868000030517578,13.156000137329102 12.868000030517578,13.156000137329102z"></path></g><g opacity="1" transform="matrix(1,0,0,1,29.058000564575195,143.5290069580078)"><path fill="rgb(19,16,33)" fill-opacity="1" d=" M13.36299991607666,13.663000106811523 C13.36299991607666,13.663000106811523 -13.36299991607666,5.322000026702881 -13.36299991607666,5.322000026702881 C-13.36299991607666,5.322000026702881 7.218999862670898,-13.663000106811523 7.218999862670898,-13.663000106811523 C7.218999862670898,-13.663000106811523 13.36299991607666,13.663000106811523 13.36299991607666,13.663000106811523z M-12.192999839782715,5.058000087738037 C-12.192999839782715,5.058000087738037 12.550999641418457,12.781000137329102 12.550999641418457,12.781000137329102 C12.550999641418457,12.781000137329102 6.86299991607666,-12.515999794006348 6.86299991607666,-12.515999794006348 C6.86299991607666,-12.515999794006348 -12.192999839782715,5.058000087738037 -12.192999839782715,5.058000087738037z"></path></g></g><g transform="matrix(1,0,0,1,0,0)" opacity="1" style="display: block;"><g opacity="1" transform="matrix(1,0,0,1,30.77199935913086,57.505001068115234)"><path fill="rgb(255,255,255)" fill-opacity="1" d=" M-2.061000108718872,-10.60200023651123 C-2.061000108718872,-10.60200023651123 6.947000026702881,-2.447999954223633 6.947000026702881,-2.447999954223633 C6.947000026702881,-2.447999954223633 11.206000328063965,10.60200023651123 11.206000328063965,10.60200023651123 C11.206000328063965,10.60200023651123 -2.194999933242798,7.6620001792907715 -2.194999933242798,7.6620001792907715 C-2.194999933242798,7.6620001792907715 -11.206000328063965,-0.49300000071525574 -11.206000328063965,-0.49300000071525574 C-11.206000328063965,-0.49300000071525574 -2.061000108718872,-10.60200023651123 -2.061000108718872,-10.60200023651123z"></path></g><g opacity="1" transform="matrix(1,0,0,1,30.764999389648438,57.505001068115234)"><path fill="rgb(19,16,33)" fill-opacity="1" d=" M11.213000297546387,10.902000427246094 C11.190999984741211,10.902000427246094 11.170000076293945,10.899999618530273 11.14799976348877,10.895000457763672 C11.14799976348877,10.895000457763672 -2.253000020980835,7.954999923706055 -2.253000020980835,7.954999923706055 C-2.302999973297119,7.943999767303467 -2.3510000705718994,7.919000148773193 -2.3889999389648438,7.885000228881836 C-2.3889999389648438,7.885000228881836 -11.39900016784668,-0.27000001072883606 -11.39900016784668,-0.27000001072883606 C-11.522000312805176,-0.38100001215934753 -11.531000137329102,-0.5709999799728394 -11.420000076293945,-0.6940000057220459 C-11.420000076293945,-0.6940000057220459 -2.2760000228881836,-10.803000450134277 -2.2760000228881836,-10.803000450134277 C-2.2230000495910645,-10.862000465393066 -2.1480000019073486,-10.89799976348877 -2.069000005722046,-10.902000427246094 C-1.975000023841858,-10.902000427246094 -1.9110000133514404,-10.878000259399414 -1.8530000448226929,-10.824000358581543 C-1.8530000448226929,-10.824000358581543 7.1570000648498535,-2.6700000762939453 7.1570000648498535,-2.6700000762939453 C7.196000099182129,-2.634999990463257 7.224999904632568,-2.5899999141693115 7.241000175476074,-2.5409998893737793 C7.241000175476074,-2.5409998893737793 11.498000144958496,10.508999824523926 11.498000144958496,10.508999824523926 C11.531000137329102,10.611000061035156 11.506999969482422,10.722999572753906 11.4350004196167,10.803000450134277 C11.378000259399414,10.866000175476074 11.29699993133545,10.902000427246094 11.213000297546387,10.902000427246094z M-2.0460000038146973,7.386000156402588 C-2.0460000038146973,7.386000156402588 10.765000343322754,10.196999549865723 10.765000343322754,10.196999549865723 C10.765000343322754,10.196999549865723 6.695000171661377,-2.2790000438690186 6.695000171661377,-2.2790000438690186 C6.695000171661377,-2.2790000438690186 -2.0329999923706055,-10.178000450134277 -2.0329999923706055,-10.178000450134277 C-2.0329999923706055,-10.178000450134277 -10.77400016784668,-0.5130000114440918 -10.77400016784668,-0.5130000114440918 C-10.77400016784668,-0.5130000114440918 -2.0460000038146973,7.386000156402588 -2.0460000038146973,7.386000156402588z"></path></g><g opacity="1" transform="matrix(1,0,0,1,37.560001373291016,64.08999633789062)"><path fill="rgb(19,16,33)" fill-opacity="1" d=" M4.416999816894531,4.314000129699707 C4.34499979019165,4.314000129699707 4.271999835968018,4.289000034332275 4.215000152587891,4.236000061035156 C4.215000152587891,4.236000061035156 -4.617000102996826,-3.759000062942505 -4.617000102996826,-3.759000062942505 C-4.739999771118164,-3.869999885559082 -4.749000072479248,-4.059999942779541 -4.63700008392334,-4.182000160217285 C-4.526000022888184,-4.304999828338623 -4.335999965667725,-4.314000129699707 -4.214000225067139,-4.203000068664551 C-4.214000225067139,-4.203000068664551 4.618000030517578,3.7920000553131104 4.618000030517578,3.7920000553131104 C4.741000175476074,3.9030001163482666 4.75,4.0929999351501465 4.638999938964844,4.215000152587891 C4.579999923706055,4.281000137329102 4.499000072479248,4.314000129699707 4.416999816894531,4.314000129699707z"></path></g></g><g transform="matrix(1,0,0,1,0,0)" opacity="1" style="display: block;"><g opacity="1" transform="matrix(1,0,0,1,14.21500015258789,42.952999114990234)"><path fill="rgb(19,16,33)" fill-opacity="1" d=" M-1.6970000267028809,-10.729000091552734 C-1.6970000267028809,-10.729000091552734 10.84000015258789,0.621999979019165 10.84000015258789,0.621999979019165 C10.84000015258789,0.621999979019165 1.6990000009536743,10.729000091552734 1.6990000009536743,10.729000091552734 C1.6990000009536743,10.729000091552734 -10.83899974822998,-0.621999979019165 -10.83899974822998,-0.621999979019165 C-10.83899974822998,-0.621999979019165 -1.6970000267028809,-10.729000091552734 -1.6970000267028809,-10.729000091552734z"></path></g><g opacity="1" transform="matrix(1,0,0,1,14.21500015258789,42.95199966430664)"><path fill="rgb(19,16,33)" fill-opacity="1" d=" M1.6970000267028809,11.027999877929688 C1.6230000257492065,11.027999877929688 1.5520000457763672,11.00100040435791 1.496999979019165,10.951000213623047 C1.496999979019165,10.951000213623047 -11.039999961853027,-0.4000000059604645 -11.039999961853027,-0.4000000059604645 C-11.163000106811523,-0.5109999775886536 -11.17199993133545,-0.7009999752044678 -11.060999870300293,-0.8230000138282776 C-11.060999870300293,-0.8230000138282776 -1.9210000038146973,-10.928999900817871 -1.9210000038146973,-10.928999900817871 C-1.8669999837875366,-10.98799991607666 -1.7910000085830688,-11.02400016784668 -1.7120000123977661,-11.027999877929688 C-1.625,-11.022000312805176 -1.555999994277954,-11.003000259399414 -1.496999979019165,-10.949999809265137 C-1.496999979019165,-10.949999809265137 11.039999961853027,0.4000000059604645 11.039999961853027,0.4000000059604645 C11.163000106811523,0.5109999775886536 11.17199993133545,0.7009999752044678 11.062000274658203,0.8230000138282776 C11.062000274658203,0.8230000138282776 1.9210000038146973,10.930000305175781 1.9210000038146973,10.930000305175781 C1.8669999837875366,10.98900032043457 1.7929999828338623,11.02400016784668 1.7130000591278076,11.027999877929688 C1.7130000591278076,11.027999877929688 1.6970000267028809,11.027999877929688 1.6970000267028809,11.027999877929688z M-10.414999961853027,-0.6430000066757202 C-10.414999961853027,-0.6430000066757202 1.6759999990463257,10.305000305175781 1.6759999990463257,10.305000305175781 C1.6759999990463257,10.305000305175781 10.414999961853027,0.6430000066757202 10.414999961853027,0.6430000066757202 C10.414999961853027,0.6430000066757202 -1.6759999990463257,-10.303999900817871 -1.6759999990463257,-10.303999900817871 C-1.6759999990463257,-10.303999900817871 -10.414999961853027,-0.6430000066757202 -10.414999961853027,-0.6430000066757202z"></path></g><g opacity="1" transform="matrix(1,0,0,1,22.327999114990234,50.29600143432617)"><path fill="rgb(255,255,255)" fill-opacity="1" d=" M2.7279999256134033,-6.7230000495910645 C2.7279999256134033,-6.7230000495910645 6.414999961853027,-3.384000062942505 6.414999961853027,-3.384000062942505 C6.414999961853027,-3.384000062942505 -2.7269999980926514,6.7230000495910645 -2.7269999980926514,6.7230000495910645 C-2.7269999980926514,6.7230000495910645 -6.414999961853027,3.384999990463257 -6.414999961853027,3.384999990463257 C-6.414999961853027,3.384999990463257 2.7279999256134033,-6.7230000495910645 2.7279999256134033,-6.7230000495910645z"></path></g><g opacity="1" transform="matrix(1,0,0,1,22.327999114990234,50.29600143432617)"><path fill="rgb(19,16,33)" fill-opacity="1" d=" M-2.7279999256134033,7.0229997634887695 C-2.802999973297119,7.0229997634887695 -2.872999906539917,6.994999885559082 -2.927999973297119,6.945000171661377 C-2.927999973297119,6.945000171661377 -6.614999771118164,3.6070001125335693 -6.614999771118164,3.6070001125335693 C-6.73799991607666,3.496000051498413 -6.748000144958496,3.305999994277954 -6.63700008392334,3.184000015258789 C-6.63700008392334,3.184000015258789 2.505000114440918,-6.923999786376953 2.505000114440918,-6.923999786376953 C2.559000015258789,-6.982999801635742 2.632999897003174,-7.01800012588501 2.7119998931884766,-7.0229997634887695 C2.7990000247955322,-7.0229997634887695 2.86899995803833,-6.999000072479248 2.927999973297119,-6.945000171661377 C2.927999973297119,-6.945000171661377 6.614999771118164,-3.6070001125335693 6.614999771118164,-3.6070001125335693 C6.73799991607666,-3.496000051498413 6.748000144958496,-3.305999994277954 6.63700008392334,-3.184000015258789 C6.63700008392334,-3.184000015258789 -2.50600004196167,6.923999786376953 -2.50600004196167,6.923999786376953 C-2.559000015258789,6.982999801635742 -2.632999897003174,7.019000053405762 -2.7119998931884766,7.0229997634887695 C-2.7119998931884766,7.0229997634887695 -2.7279999256134033,7.0229997634887695 -2.7279999256134033,7.0229997634887695z M-5.989999771118164,3.36299991607666 C-5.989999771118164,3.36299991607666 -2.749000072479248,6.298999786376953 -2.749000072479248,6.298999786376953 C-2.749000072479248,6.298999786376953 5.989999771118164,-3.364000082015991 5.989999771118164,-3.364000082015991 C5.989999771118164,-3.364000082015991 2.749000072479248,-6.298999786376953 2.749000072479248,-6.298999786376953 C2.749000072479248,-6.298999786376953 -5.989999771118164,3.36299991607666 -5.989999771118164,3.36299991607666z"></path></g><g opacity="1" transform="matrix(1,0,0,1,28.91699981689453,56.28099822998047)"><path fill="rgb(255,255,255)" fill-opacity="1" d=" M-0.27799999713897705,1.4670000076293945 C-1.0880000591278076,1.312999963760376 -1.6200000047683716,0.5320000052452087 -1.465999960899353,-0.27900001406669617 C-1.312999963760376,-1.0889999866485596 -0.5320000052452087,-1.621000051498413 0.27799999713897705,-1.4670000076293945 C1.0880000591278076,-1.312999963760376 1.6200000047683716,-0.5320000052452087 1.4670000076293945,0.27900001406669617 C1.312999963760376,1.0889999866485596 0.5320000052452087,1.621000051498413 -0.27799999713897705,1.4670000076293945z"></path></g><g opacity="1" transform="matrix(1,0,0,1,28.91699981689453,56.25299835205078)"><path fill="rgb(19,16,33)" fill-opacity="1" d=" M0.004999999888241291,1.8209999799728394 C-0.10700000077486038,1.8209999799728394 -0.22200000286102295,1.8109999895095825 -0.33500000834465027,1.7899999618530273 C-1.305999994277954,1.6050000190734863 -1.9459999799728394,0.6650000214576721 -1.7619999647140503,-0.3070000112056732 C-1.6720000505447388,-0.7770000100135803 -1.4049999713897705,-1.184999942779541 -1.0099999904632568,-1.4550000429153442 C-0.6129999756813049,-1.7239999771118164 -0.13500000536441803,-1.8209999799728394 0.33500000834465027,-1.7339999675750732 C1.305999994277954,-1.5499999523162842 1.9459999799728394,-0.609000027179718 1.7619999647140503,0.3619999885559082 C1.6729999780654907,0.8330000042915344 1.406000018119812,1.2400000095367432 1.0099999904632568,1.5099999904632568 C0.7089999914169312,1.715000033378601 0.3610000014305115,1.8209999799728394 0.004999999888241291,1.8209999799728394z M-0.003000000026077032,-1.1660000085830688 C-0.23999999463558197,-1.1660000085830688 -0.47099998593330383,-1.0950000286102295 -0.6710000038146973,-0.9580000042915344 C-0.9340000152587891,-0.7789999842643738 -1.1119999885559082,-0.5080000162124634 -1.1710000038146973,-0.19499999284744263 C-1.2940000295639038,0.45100000500679016 -0.8679999709129333,1.0770000219345093 -0.22100000083446503,1.2000000476837158 C0.09200000017881393,1.2619999647140503 0.4090000092983246,1.194000005722046 0.671999990940094,1.0140000581741333 C0.9350000023841858,0.8339999914169312 1.1130000352859497,0.5630000233650208 1.1720000505447388,0.25099998712539673 C1.2949999570846558,-0.3959999978542328 0.8690000176429749,-1.0219999551773071 0.22300000488758087,-1.1449999809265137 C0.14800000190734863,-1.159000039100647 0.07199999690055847,-1.1660000085830688 -0.003000000026077032,-1.1660000085830688z"></path></g></g><g transform="matrix(1,0,0,1,0,0)" opacity="1" style="display: block;"><g opacity="1" transform="matrix(1,0,0,1,154.07000732421875,17.194000244140625)"><path fill="rgb(19,16,33)" fill-opacity="1" d=" M6.993000030517578,9.63700008392334 C6.872000217437744,9.63700008392334 6.757999897003174,9.564000129699707 6.7129998207092285,9.444000244140625 C1.781999945640564,-3.5999999046325684 -7.054999828338623,-8.984999656677246 -7.144000053405762,-9.036999702453613 C-7.285999774932861,-9.121999740600586 -7.333000183105469,-9.305999755859375 -7.248000144958496,-9.449000358581543 C-7.1620001792907715,-9.592000007629395 -6.9770002365112305,-9.63700008392334 -6.836999893188477,-9.553000450134277 C-6.745999813079834,-9.49899959564209 2.2699999809265137,-4.00600004196167 7.2729997634887695,9.232000350952148 C7.331999778747559,9.38700008392334 7.254000186920166,9.5600004196167 7.098999977111816,9.618000030517578 C7.064000129699707,9.631999969482422 7.0279998779296875,9.63700008392334 6.993000030517578,9.63700008392334z"></path></g><g opacity="1" transform="matrix(1,0,0,1,152.12600708007812,20.51799964904785)"><path fill="rgb(19,16,33)" fill-opacity="1" d=" M4.875,7.090000152587891 C4.761000156402588,7.090000152587891 4.650000095367432,7.02400016784668 4.60099983215332,6.9120001792907715 C0.7799999713897705,-1.6640000343322754 -5.01200008392334,-6.473999977111816 -5.070000171661377,-6.521999835968018 C-5.197999954223633,-6.626999855041504 -5.2170000076293945,-6.815999984741211 -5.111999988555908,-6.943999767303467 C-5.00600004196167,-7.072999954223633 -4.815999984741211,-7.090000152587891 -4.689000129699707,-6.986000061035156 C-4.63100004196167,-6.936999797821045 1.2680000066757202,-2.0450000762939453 5.14900016784668,6.668000221252441 C5.2170000076293945,6.818999767303467 5.1479997634887695,6.995999813079834 4.997000217437744,7.064000129699707 C4.956999778747559,7.080999851226807 4.915999889373779,7.090000152587891 4.875,7.090000152587891z"></path></g></g><g transform="matrix(1,0,0,1,0,0)" opacity="1" style="display: block;"><g opacity="1" transform="matrix(1,0,0,1,167.59100341796875,56.595001220703125)"><path fill="rgb(180,183,200)" fill-opacity="1" d=" M-5.09499979019165,9.819000244140625 C-5.09499979019165,9.819000244140625 -8.503000259399414,6.251999855041504 -8.503000259399414,6.251999855041504 C-8.503000259399414,6.251999855041504 -3.049999952316284,5.684999942779541 -2.305000066757202,3.2929999828338623 C-1.6069999933242798,1.0520000457763672 -5.301000118255615,-3.4519999027252197 -3.8559999465942383,-5.828999996185303 C-2.617000102996826,-7.868000030517578 5.815999984741211,-9.819000244140625 5.815999984741211,-9.819000244140625 C5.815999984741211,-9.819000244140625 8.503000259399414,-7.375999927520752 8.503000259399414,-7.375999927520752 C8.503000259399414,-7.375999927520752 1.4809999465942383,-5.979000091552734 0.6340000033378601,-3.7139999866485596 C-0.5099999904632568,-0.6460000276565552 3.2750000953674316,2.3559999465942383 2.7669999599456787,4.3480000495910645 C2.0250000953674316,7.27400016784668 -5.09499979019165,9.819000244140625 -5.09499979019165,9.819000244140625z"></path></g><g opacity="1" transform="matrix(1,0,0,1,167.58999633789062,56.5880012512207)"><path fill="rgb(19,16,33)" fill-opacity="1" d=" M-5.093999862670898,10.12600040435791 C-5.173999786376953,10.12600040435791 -5.252999782562256,10.093999862670898 -5.310999870300293,10.032999992370605 C-5.310999870300293,10.032999992370605 -8.718999862670898,6.465000152587891 -8.718999862670898,6.465000152587891 C-8.79800033569336,6.382999897003174 -8.822999954223633,6.263000011444092 -8.782999992370605,6.156000137329102 C-8.744000434875488,6.047999858856201 -8.647000312805176,5.9720001220703125 -8.532999992370605,5.960000038146973 C-8.480999946594238,5.954999923706055 -3.2679998874664307,5.38700008392334 -2.5899999141693115,3.2100000381469727 C-2.308000087738037,2.305999994277954 -2.8559999465942383,0.9039999842643738 -3.436000108718872,-0.5789999961853027 C-4.197000026702881,-2.5269999504089355 -4.984000205993652,-4.540999889373779 -4.111000061035156,-5.979000091552734 C-2.822000026702881,-8.10200023651123 5.400000095367432,-10.02400016784668 5.75,-10.104999542236328 C5.8470001220703125,-10.12600040435791 5.946000099182129,-10.10099983215332 6.019000053405762,-10.03499984741211 C6.019000053405762,-10.03499984741211 8.706000328063965,-7.5920000076293945 8.706000328063965,-7.5920000076293945 C8.788999557495117,-7.515999794006348 8.822999954223633,-7.39900016784668 8.793000221252441,-7.289999961853027 C8.762999534606934,-7.181000232696533 8.673999786376953,-7.0980000495910645 8.562000274658203,-7.076000213623047 C6.65500020980835,-6.696000099182129 1.562000036239624,-5.330999851226807 0.9169999957084656,-3.6019999980926514 C0.3109999895095825,-1.9800000190734863 1.2300000190734863,-0.31200000643730164 2.0409998893737793,1.159999966621399 C2.690999984741211,2.3420000076293945 3.306999921798706,3.4570000171661377 3.059999942779541,4.427999973297119 C2.2869999408721924,7.473999977111816 -4.696000099182129,10.001999855041504 -4.993000030517578,10.109000205993652 C-5.025000095367432,10.121000289916992 -5.059999942779541,10.12600040435791 -5.093999862670898,10.12600040435791z M-7.877999782562256,6.4770002365112305 C-7.877999782562256,6.4770002365112305 -5.013999938964844,9.475000381469727 -5.013999938964844,9.475000381469727 C-3.9110000133514404,9.057999610900879 1.847000002861023,6.76800012588501 2.4769999980926514,4.281000137329102 C2.6670000553131104,3.5399999618530273 2.1070001125335693,2.5239999294281006 1.5160000324249268,1.4490000009536743 C0.6430000066757202,-0.13600000739097595 -0.34700000286102295,-1.9320000410079956 0.3540000021457672,-3.812000036239624 C1.1089999675750732,-5.831999778747559 6.140999794006348,-7.144000053405762 7.870999813079834,-7.539999961853027 C7.870999813079834,-7.539999961853027 5.73199987411499,-9.484000205993652 5.73199987411499,-9.484000205993652 C3.311000108718872,-8.911999702453613 -2.6570000648498535,-7.2170000076293945 -3.5980000495910645,-5.666999816894531 C-4.316999912261963,-4.482999801635742 -3.5850000381469727,-2.6080000400543213 -2.877000093460083,-0.7960000038146973 C-2.257999897003174,0.7870000004768372 -1.6729999780654907,2.2829999923706055 -2.0179998874664307,3.3889999389648438 C-2.6659998893737793,5.4720001220703125 -6.401000022888184,6.248000144958496 -7.877999782562256,6.4770002365112305z"></path></g></g><g transform="matrix(1,0,0,1,0,0)" opacity="1" style="display: block;"><g opacity="1" transform="matrix(1,0,0,1,98.44200134277344,53.19499969482422)"><path fill="rgb(255,255,255)" fill-opacity="1" d=" M-20.479000091552734,-36.196998596191406 C-20.479000091552734,-36.196998596191406 20.479000091552734,-36.196998596191406 20.479000091552734,-36.196998596191406 C29.149999618530273,-36.196998596191406 36.17900085449219,-29.16699981689453 36.17900085449219,-20.496000289916992 C36.17900085449219,-20.496000289916992 36.17900085449219,20.4950008392334 36.17900085449219,20.4950008392334 C36.17900085449219,29.166000366210938 29.149999618530273,36.196998596191406 20.479000091552734,36.196998596191406 C20.479000091552734,36.196998596191406 -20.479000091552734,36.196998596191406 -20.479000091552734,36.196998596191406 C-29.149999618530273,36.196998596191406 -36.17900085449219,29.166000366210938 -36.17900085449219,20.4950008392334 C-36.17900085449219,20.4950008392334 -36.17900085449219,-20.496000289916992 -36.17900085449219,-20.496000289916992 C-36.17900085449219,-29.16699981689453 -29.149999618530273,-36.196998596191406 -20.479000091552734,-36.196998596191406z"></path></g><g opacity="1" transform="matrix(1,0,0,1,98.44200134277344,53.19499969482422)"><path fill="rgb(19,16,33)" fill-opacity="1" d=" M20.479000091552734,36.49599838256836 C20.479000091552734,36.49599838256836 -20.479000091552734,36.49599838256836 -20.479000091552734,36.49599838256836 C-29.302000045776367,36.49599838256836 -36.479000091552734,29.319000244140625 -36.479000091552734,20.496999740600586 C-36.479000091552734,20.496999740600586 -36.479000091552734,-20.496000289916992 -36.479000091552734,-20.496000289916992 C-36.479000091552734,-29.31800079345703 -29.302000045776367,-36.49599838256836 -20.479000091552734,-36.49599838256836 C-20.479000091552734,-36.49599838256836 20.479000091552734,-36.49599838256836 20.479000091552734,-36.49599838256836 C29.301000595092773,-36.49599838256836 36.479000091552734,-29.31800079345703 36.479000091552734,-20.496000289916992 C36.479000091552734,-20.496000289916992 36.479000091552734,20.496999740600586 36.479000091552734,20.496999740600586 C36.479000091552734,29.319000244140625 29.301000595092773,36.49599838256836 20.479000091552734,36.49599838256836z M-20.479000091552734,-35.895999908447266 C-28.97100067138672,-35.895999908447266 -35.87900161743164,-28.98699951171875 -35.87900161743164,-20.496000289916992 C-35.87900161743164,-20.496000289916992 -35.87900161743164,20.496999740600586 -35.87900161743164,20.496999740600586 C-35.87900161743164,28.988000869750977 -28.97100067138672,35.895999908447266 -20.479000091552734,35.895999908447266 C-20.479000091552734,35.895999908447266 20.479000091552734,35.895999908447266 20.479000091552734,35.895999908447266 C28.969999313354492,35.895999908447266 35.87900161743164,28.988000869750977 35.87900161743164,20.496999740600586 C35.87900161743164,20.496999740600586 35.87900161743164,-20.496000289916992 35.87900161743164,-20.496000289916992 C35.87900161743164,-28.98699951171875 28.969999313354492,-35.895999908447266 20.479000091552734,-35.895999908447266 C20.479000091552734,-35.895999908447266 -20.479000091552734,-35.895999908447266 -20.479000091552734,-35.895999908447266z"></path></g></g><g transform="matrix(1,0,0,1,0,0)" opacity="1" style="display: block;"><g opacity="1" transform="matrix(1,0,0,1,105.04000091552734,53.18299865722656)"><path fill="rgb(98,102,240)" fill-opacity="1" d=" M5.894999980926514,0 C5.894999980926514,3.259999990463257 3.253999948501587,5.906000137329102 0,5.906000137329102 C-3.253000020980835,5.906000137329102 -5.894999980926514,3.259999990463257 -5.894999980926514,0 C-5.894999980926514,-3.259999990463257 -3.253000020980835,-5.906000137329102 0,-5.906000137329102 C3.253999948501587,-5.906000137329102 5.894999980926514,-3.259999990463257 5.894999980926514,0z"></path></g><g opacity="1" transform="matrix(1,0,0,1,105.03900146484375,40.10100173950195)"><path fill="rgb(98,102,240)" fill-opacity="1" d=" M-5.894999980926514,-4.705999851226807 C-5.894999980926514,-5.36899995803833 -5.357999801635742,-5.906000137329102 -4.695000171661377,-5.906000137329102 C-4.695000171661377,-5.906000137329102 0.0010000000474974513,-5.906000137329102 0.0010000000474974513,-5.906000137329102 C3.253999948501587,-5.906000137329102 5.894999980926514,-3.259999990463257 5.894999980926514,0.0010000000474974513 C5.894999980926514,3.259999990463257 3.253999948501587,5.906000137329102 0.0010000000474974513,5.906000137329102 C0.0010000000474974513,5.906000137329102 -4.695000171661377,5.906000137329102 -4.695000171661377,5.906000137329102 C-5.357999801635742,5.906000137329102 -5.894999980926514,5.36899995803833 -5.894999980926514,4.705999851226807 C-5.894999980926514,4.705999851226807 -5.894999980926514,-4.705999851226807 -5.894999980926514,-4.705999851226807z"></path></g><g opacity="1" transform="matrix(1,0,0,1,91.98500061035156,66.25299835205078)"><path fill="rgb(98,102,240)" fill-opacity="1" d=" M0.0010000000474974513,5.906000137329102 C3.255000114440918,5.906000137329102 5.895999908447266,3.259999990463257 5.895999908447266,0.0010000000474974513 C5.895999908447266,0.0010000000474974513 5.895999908447266,-4.705999851226807 5.895999908447266,-4.705999851226807 C5.895999908447266,-5.36899995803833 5.357999801635742,-5.906000137329102 4.695000171661377,-5.906000137329102 C4.695000171661377,-5.906000137329102 0.0010000000474974513,-5.906000137329102 0.0010000000474974513,-5.906000137329102 C-3.253000020980835,-5.906000137329102 -5.895999908447266,-3.259999990463257 -5.895999908447266,0.0010000000474974513 C-5.895999908447266,3.259999990463257 -3.253000020980835,5.906000137329102 0.0010000000474974513,5.906000137329102z"></path></g><g opacity="1" transform="matrix(1,0,0,1,91.98500061035156,53.18299865722656)"><path fill="rgb(98,102,240)" fill-opacity="1" d=" M-5.894999980926514,0 C-5.894999980926514,-3.259999990463257 -3.253999948501587,-5.906000137329102 0.0010000000474974513,-5.906000137329102 C0.0010000000474974513,-5.906000137329102 4.695000171661377,-5.906000137329102 4.695000171661377,-5.906000137329102 C5.357999801635742,-5.906000137329102 5.894999980926514,-5.368000030517578 5.894999980926514,-4.704999923706055 C5.894999980926514,-4.704999923706055 5.894999980926514,4.705999851226807 5.894999980926514,4.705999851226807 C5.894999980926514,5.368000030517578 5.357999801635742,5.906000137329102 4.695000171661377,5.906000137329102 C4.695000171661377,5.906000137329102 0.0010000000474974513,5.906000137329102 0.0010000000474974513,5.906000137329102 C-3.253999948501587,5.906000137329102 -5.894999980926514,3.259999990463257 -5.894999980926514,0z"></path></g><g opacity="1" transform="matrix(1,0,0,1,91.98500061035156,40.10100173950195)"><path fill="rgb(98,102,240)" fill-opacity="1" d=" M-5.894999980926514,0 C-5.894999980926514,-3.259999990463257 -3.253999948501587,-5.906000137329102 0.0010000000474974513,-5.906000137329102 C0.0010000000474974513,-5.906000137329102 4.695000171661377,-5.906000137329102 4.695000171661377,-5.906000137329102 C5.357999801635742,-5.906000137329102 5.894999980926514,-5.36899995803833 5.894999980926514,-4.705999851226807 C5.894999980926514,-4.705999851226807 5.894999980926514,4.705999851226807 5.894999980926514,4.705999851226807 C5.894999980926514,5.368000030517578 5.357999801635742,5.906000137329102 4.695000171661377,5.906000137329102 C4.695000171661377,5.906000137329102 0.0010000000474974513,5.906000137329102 0.0010000000474974513,5.906000137329102 C-3.253999948501587,5.906000137329102 -5.894999980926514,3.259999990463257 -5.894999980926514,0z"></path></g></g></g></svg>