<svg xmlns="http://www.w3.org/2000/svg" xmlns:xlink="http://www.w3.org/1999/xlink" viewBox="0 0 180 180" width="180" height="180" preserveAspectRatio="xMidYMid meet" style="width: 100%; height: 100%; transform: translate3d(0px, 0px, 0px); content-visibility: visible;"><defs><clipPath id="__lottie_element_222"><rect width="180" height="180" x="0" y="0"></rect></clipPath></defs><g clip-path="url(#__lottie_element_222)"><g transform="matrix(1,0,0,1,0,0)" opacity="1" style="display: block;"><g opacity="1" transform="matrix(1,0,0,1,115.59300231933594,108.47100067138672)"><path fill="rgb(255,255,255)" fill-opacity="1" d=" M29.42799949645996,-53.93199920654297 C44.797000885009766,-33.76499938964844 46.58700180053711,-6.534999847412109 33.987998962402344,15.439000129699707 C19.868999481201172,40.0620002746582 -9.279000282287598,51.858001708984375 -36.1349983215332,44.7760009765625 C-36.1349983215332,44.7760009765625 -33.54199981689453,44.07699966430664 -33.54199981689453,44.07699966430664 C-31.961000442504883,43.6510009765625 -31.02899932861328,42.020999908447266 -31.45599937438965,40.4379997253418 C-31.882999420166016,38.854000091552734 -33.507999420166016,37.91400146484375 -35.0890007019043,38.340999603271484 C-35.0890007019043,38.340999603271484 -46.553001403808594,41.43199920654297 -46.553001403808594,41.43199920654297 C-48.13399887084961,41.858001708984375 -49.06800079345703,43.487998962402344 -48.64099884033203,45.07099914550781 C-48.64099884033203,45.07099914550781 -45.540000915527344,56.56800079345703 -45.540000915527344,56.56800079345703 C-45.112998962402344,58.1510009765625 -43.48699951171875,59.09000015258789 -41.90599822998047,58.66400146484375 C-40.32400131225586,58.23699951171875 -39.393001556396484,56.608001708984375 -39.81999969482422,55.025001525878906 C-39.81999969482422,55.025001525878906 -41.32600021362305,49.435001373291016 -41.32600021362305,49.435001373291016 C-27.270000457763672,54.016998291015625 -12.017999649047852,53.9119987487793 2.0850000381469727,49.05799865722656 C2.0850000381469727,49.05799865722656 1.9880000352859497,48.775001525878906 1.9880000352859497,48.775001525878906 C1.9880000352859497,48.775001525878906 2.0850000381469727,49.05799865722656 2.0850000381469727,49.05799865722656 C17.725000381469727,43.67499923706055 30.8799991607666,32.78799819946289 39.12799835205078,18.402999877929688 C45.98400115966797,6.446000099182129 49.06800079345703,-7.122000217437744 48.04600143432617,-20.832000732421875 C47.04899978637695,-34.21099853515625 42.237998962402344,-46.902000427246094 34.1349983215332,-57.534000396728516 C33.141998291015625,-58.8380012512207 31.2810001373291,-59.09000015258789 29.981000900268555,-58.095001220703125 C28.680999755859375,-57.099998474121094 28.43400001525879,-55.236000061035156 29.42799949645996,-53.93199920654297z"></path></g><g opacity="1" transform="matrix(1,0,0,1,115.69999694824219,108.45899963378906)"><path fill="rgb(19,16,33)" fill-opacity="1" d=" M-42.78200149536133,59.077999114990234 C-44.22200012207031,59.077999114990234 -45.54399871826172,58.1150016784668 -45.9379997253418,56.65700149536133 C-45.9379997253418,56.65700149536133 -49.0369987487793,45.1609992980957 -49.0369987487793,45.1609992980957 C-49.26499938964844,44.319000244140625 -49.1510009765625,43.4370002746582 -48.71699905395508,42.68000030517578 C-48.28300094604492,41.92300033569336 -47.58000183105469,41.38100051879883 -46.737998962402344,41.15299987792969 C-46.737998962402344,41.15299987792969 -35.275001525878906,38.0629997253418 -35.275001525878906,38.0629997253418 C-34.433998107910156,37.83599853515625 -33.551998138427734,37.95000076293945 -32.797000885009766,38.387001037597656 C-32.04100036621094,38.823001861572266 -31.5,39.52799987792969 -31.273000717163086,40.37099838256836 C-30.804000854492188,42.11199951171875 -31.834999084472656,43.90999984741211 -33.571998596191406,44.37900161743164 C-33.571998596191406,44.37900161743164 -35.05699920654297,44.77799987792969 -35.05699920654297,44.77799987792969 C-8.255000114440918,51.32500076293945 19.85099983215332,39.31399917602539 33.61899948120117,15.300999641418457 C46.159000396728516,-6.566999912261963 44.37799835205078,-33.66699981689453 29.082000732421875,-53.73899841308594 C27.98900032043457,-55.172000885009766 28.26300048828125,-57.22700119018555 29.69099998474121,-58.32099914550781 C30.384000778198242,-58.85100173950195 31.240999221801758,-59.077999114990234 32.104000091552734,-58.96200180053711 C32.970001220703125,-58.84700012207031 33.73699951171875,-58.39899826049805 34.26599884033203,-57.70399856567383 C42.404998779296875,-47.025001525878906 47.236000061035156,-34.27799987792969 48.23699951171875,-20.843000411987305 C49.263999938964844,-7.072000026702881 46.16600036621094,6.554999828338623 39.28099822998047,18.565000534057617 C31.047000885009766,32.92499923706055 17.94099998474121,43.814998626708984 2.3580000400543213,49.255001068115234 C2.3580000400543213,49.255001068115234 2.3589999675750732,49.255001068115234 2.3589999675750732,49.255001068115234 C2.3589999675750732,49.255001068115234 2.118000030517578,49.3390007019043 2.118000030517578,49.3390007019043 C2.1029999256134033,49.34400177001953 2.0910000801086426,49.347999572753906 2.0759999752044678,49.35300064086914 C2.0759999752044678,49.35300064086914 1.7920000553131104,49.45000076293945 1.7920000553131104,49.45000076293945 C-11.998000144958496,54.12799835205078 -27.15999984741211,54.2859992980957 -41.000999450683594,49.9010009765625 C-41.000999450683594,49.9010009765625 -39.637001037597656,54.95800018310547 -39.637001037597656,54.95800018310547 C-39.167999267578125,56.69900131225586 -40.19900131225586,58.49700164794922 -41.93600082397461,58.965999603271484 C-42.21799850463867,59.04199981689453 -42.50199890136719,59.077999114990234 -42.78200149536133,59.077999114990234z M-34.422000885009766,38.54899978637695 C-34.65399932861328,38.54899978637695 -34.88800048828125,38.58000183105469 -35.11899948120117,38.643001556396484 C-35.11899948120117,38.643001556396484 -46.582000732421875,41.73400115966797 -46.582000732421875,41.73400115966797 C-47.26900100708008,41.917999267578125 -47.84199905395508,42.361000061035156 -48.19599914550781,42.979000091552734 C-48.55099868774414,43.59700012207031 -48.64400100708008,44.31700134277344 -48.45800018310547,45.005001068115234 C-48.45800018310547,45.005001068115234 -45.35900115966797,56.500999450683594 -45.35900115966797,56.500999450683594 C-44.974998474121094,57.922000885009766 -43.51300048828125,58.77000045776367 -42.09199905395508,58.38600158691406 C-40.67399978637695,58.00400161743164 -39.83300018310547,56.5359992980957 -40.215999603271484,55.11399841308594 C-40.215999603271484,55.11399841308594 -41.86800003051758,48.98899841308594 -41.86800003051758,48.98899841308594 C-41.86800003051758,48.98899841308594 -41.340999603271484,49.1609992980957 -41.340999603271484,49.1609992980957 C-27.38599967956543,53.709999084472656 -12.038000106811523,53.57500076293945 1.8799999952316284,48.7859992980957 C17.450000762939453,43.426998138427734 30.54800033569336,32.5880012512207 38.76100158691406,18.266000747680664 C45.58599853515625,6.361000061035156 48.65599822998047,-7.146999835968018 47.63999938964844,-20.79800033569336 C46.645999908447266,-34.11800003051758 41.856998443603516,-46.75400161743164 33.790000915527344,-57.340999603271484 C33.356998443603516,-57.90800094604492 32.72999954223633,-58.27299880981445 32.02399826049805,-58.36800003051758 C31.31999969482422,-58.4630012512207 30.621000289916992,-58.277000427246094 30.05699920654297,-57.845001220703125 C28.889999389648438,-56.95199966430664 28.666000366210938,-55.27299880981445 29.558000564575195,-54.10200119018555 C45.00199890136719,-33.8380012512207 46.79999923706055,-6.478000164031982 34.13999938964844,15.600000381469727 C20.04599952697754,40.18000030517578 -8.925999641418457,52.29800033569336 -36.319000244140625,45.07699966430664 C-36.319000244140625,45.07699966430664 -37.40700149536133,44.790000915527344 -37.40700149536133,44.790000915527344 C-37.40700149536133,44.790000915527344 -33.72800064086914,43.79899978637695 -33.72800064086914,43.79899978637695 C-32.31100082397461,43.41699981689453 -31.4689998626709,41.94900131225586 -31.851999282836914,40.52799987792969 C-32.03799819946289,39.8380012512207 -32.47999954223633,39.26300048828125 -33.09700012207031,38.90599822998047 C-33.50600051879883,38.66999816894531 -33.96200180053711,38.54899978637695 -34.422000885009766,38.54899978637695z"></path></g></g><g transform="matrix(1,0,0,1,0,0)" opacity="1" style="display: block;"><g opacity="1" transform="matrix(1,0,0,1,62.757999420166016,67.21099853515625)"><path fill="rgb(255,255,255)" fill-opacity="1" d=" M0.5789999961853027,-49.215999603271484 C-15.348999977111816,-44.57400131225586 -29.055999755859375,-34.31700134277344 -38.01499938964844,-20.333999633789062 C-48.04899978637695,-4.673999786376953 -51.125,13.947999954223633 -47.30099868774414,31.405000686645508 C-45.45500183105469,39.83599853515625 -41.999000549316406,47.99399948120117 -36.941001892089844,55.417999267578125 C-36.016998291015625,56.77399826049805 -34.16899871826172,57.124000549316406 -32.8120002746582,56.20000076293945 C-31.45599937438965,55.2760009765625 -31.10700035095215,53.428001403808594 -32.029998779296875,52.071998596191406 C-46.220001220703125,31.249000549316406 -46.604000091552734,4.086999893188477 -33.012001037597656,-17.128999710083008 C-17.805999755859375,-40.86000061035156 11.588000297546387,-51.29899978637695 37.97200012207031,-43.35100173950195 C37.97200012207031,-43.35100173950195 35.84199905395508,-42.88399887084961 35.84199905395508,-42.88399887084961 C34.23899841308594,-42.53300094604492 33.2239990234375,-40.94900131225586 33.57500076293945,-39.34600067138672 C33.92599868774414,-37.74300003051758 35.5099983215332,-36.72800064086914 37.112998962402344,-37.07899856567383 C37.112998962402344,-37.07899856567383 48.50699996948242,-39.57500076293945 48.50699996948242,-39.57500076293945 C50.111000061035156,-39.92599868774414 51.125,-41.5099983215332 50.77399826049805,-43.112998962402344 C50.77399826049805,-43.112998962402344 48.27899932861328,-54.50600051879883 48.27899932861328,-54.50600051879883 C47.928001403808594,-56.10900115966797 46.34400177001953,-57.124000549316406 44.74100112915039,-56.77299880981445 C43.13800048828125,-56.422000885009766 42.12200164794922,-54.8380012512207 42.4739990234375,-53.23500061035156 C42.4739990234375,-53.23500061035156 43.6870002746582,-47.69499969482422 43.6870002746582,-47.69499969482422 C29.934999465942383,-52.79899978637695 14.805000305175781,-53.361000061035156 0.5789999961853027,-49.215999603271484z"></path></g><g opacity="1" transform="matrix(1,0,0,1,62.61899948120117,67.09300231933594)"><path fill="rgb(19,16,33)" fill-opacity="1" d=" M-34.34000015258789,57.1349983215332 C-34.54399871826172,57.1349983215332 -34.75,57.1150016784668 -34.95500183105469,57.07600021362305 C-35.81399917602539,56.91400146484375 -36.55799865722656,56.426998138427734 -37.04999923706055,55.70500183105469 C-42.060001373291016,48.35300064086914 -45.56100082397461,40.23699951171875 -47.45500183105469,31.586999893188477 C-51.393001556396484,13.609000205993652 -48.08100128173828,-4.84499979019165 -38.12900161743164,-20.37700080871582 C-29.1299991607666,-34.422000885009766 -15.36400032043457,-44.7239990234375 0.6340000033378601,-49.38600158691406 C14.61299991607666,-53.45800018310547 29.784000396728516,-52.979000091552734 43.41600036621094,-48.047000885009766 C43.41600036621094,-48.047000885009766 42.31999969482422,-53.053001403808594 42.31999969482422,-53.053001403808594 C42.132999420166016,-53.90599822998047 42.290000915527344,-54.78099822998047 42.7599983215332,-55.516998291015625 C43.231998443603516,-56.25299835205078 43.96200180053711,-56.76100158691406 44.814998626708984,-56.948001861572266 C45.66999816894531,-57.1349983215332 46.54499816894531,-56.97800064086914 47.279998779296875,-56.50699996948242 C48.01599884033203,-56.0359992980957 48.52399826049805,-55.305999755859375 48.71099853515625,-54.45199966430664 C48.71099853515625,-54.45199966430664 51.20600128173828,-43.058998107910156 51.20600128173828,-43.058998107910156 C51.393001556396484,-42.20600128173828 51.23699951171875,-41.33100128173828 50.76499938964844,-40.595001220703125 C50.29399871826172,-39.85900115966797 49.56399917602539,-39.35200119018555 48.71099853515625,-39.16400146484375 C48.71099853515625,-39.16400146484375 37.316001892089844,-36.667999267578125 37.316001892089844,-36.667999267578125 C35.547000885009766,-36.28300094604492 33.80699920654297,-37.40299987792969 33.42100143432617,-39.16400146484375 C33.03499984741211,-40.92599868774414 34.154998779296875,-42.67300033569336 35.91699981689453,-43.058998107910156 C35.91699981689453,-43.058998107910156 36.895999908447266,-43.27399826049805 36.895999908447266,-43.27399826049805 C10.600000381469727,-50.65800094604492 -17.849000930786133,-39.902000427246094 -32.619998931884766,-16.849000930786133 C-46.14799880981445,4.265999794006348 -45.763999938964844,31.298999786376953 -31.64299964904785,52.020999908447266 C-30.628000259399414,53.512001037597656 -31.013999938964844,55.54999923706055 -32.50400161743164,56.564998626708984 C-33.053001403808594,56.939998626708984 -33.68899917602539,57.1349983215332 -34.34000015258789,57.1349983215332z M0.8019999861717224,-48.810001373291016 C-15.057000160217285,-44.1879997253418 -28.702999114990234,-33.97600173950195 -37.624000549316406,-20.054000854492188 C-47.4900016784668,-4.6570000648498535 -50.77299880981445,13.637999534606934 -46.86899948120117,31.45800018310547 C-44.99100112915039,40.034000396728516 -41.52000045776367,48.077999114990234 -36.553001403808594,55.367000579833984 C-36.152000427246094,55.957000732421875 -35.54499816894531,56.35499954223633 -34.84400177001953,56.48699951171875 C-34.14500045776367,56.61800003051758 -33.43199920654297,56.47100067138672 -32.84199905395508,56.069000244140625 C-31.625,55.2400016784668 -31.309999465942383,53.57600021362305 -32.138999938964844,52.358001708984375 C-46.395999908447266,31.437999725341797 -46.78300094604492,4.144999980926514 -33.125,-17.172000885009766 C-17.999000549316406,-40.779998779296875 11.329000473022461,-51.6150016784668 38.198001861572266,-43.52000045776367 C38.198001861572266,-43.52000045776367 39.303001403808594,-43.1870002746582 39.303001403808594,-43.1870002746582 C39.303001403808594,-43.1870002746582 36.04600143432617,-42.472999572753906 36.04600143432617,-42.472999572753906 C34.60599899291992,-42.15800094604492 33.69200134277344,-40.73099899291992 34.00699996948242,-39.29199981689453 C34.321998596191406,-37.854000091552734 35.75299835205078,-36.935001373291016 37.1870002746582,-37.25400161743164 C37.1870002746582,-37.25400161743164 48.582000732421875,-39.75 48.582000732421875,-39.75 C49.27899932861328,-39.90299987792969 49.875999450683594,-40.31800079345703 50.2599983215332,-40.917999267578125 C50.64500045776367,-41.51900100708008 50.77199935913086,-42.23400115966797 50.619998931884766,-42.930999755859375 C50.619998931884766,-42.930999755859375 48.125,-54.32400131225586 48.125,-54.32400131225586 C47.97200012207031,-55.020999908447266 47.55699920654297,-55.617000579833984 46.957000732421875,-56.000999450683594 C46.35599899291992,-56.387001037597656 45.63800048828125,-56.51300048828125 44.944000244140625,-56.36199951171875 C44.24700164794922,-56.20899963378906 43.6510009765625,-55.79399871826172 43.26599884033203,-55.19300079345703 C42.88199996948242,-54.59199905395508 42.75400161743164,-53.87799835205078 42.90599822998047,-53.180999755859375 C42.90599822998047,-53.180999755859375 44.236000061035156,-47.10499954223633 44.236000061035156,-47.10499954223633 C44.236000061035156,-47.10499954223633 43.72100067138672,-47.29600143432617 43.72100067138672,-47.29600143432617 C30.076000213623047,-52.36000061035156 14.831999778747559,-52.89799880981445 0.8019999861717224,-48.810001373291016z"></path></g></g><g transform="matrix(1,0,0,1,0,0)" opacity="1" style="display: block;"><g opacity="1" transform="matrix(1,0,0,1,90.83000183105469,91.36599731445312)"><path fill="rgb(98,102,240)" fill-opacity="1" d=" M27.299999237060547,4.172999858856201 C27.299999237060547,4.172999858856201 27.268999099731445,4.375 27.268999099731445,4.375 C27.268999099731445,4.375 27.44700050354004,4.478000164031982 27.44700050354004,4.478000164031982 C27.44700050354004,4.478000164031982 34.9379997253418,8.805000305175781 34.9379997253418,8.805000305175781 C34.9379997253418,8.805000305175781 25.089000701904297,25.885000228881836 25.089000701904297,25.885000228881836 C25.089000701904297,25.885000228881836 17.597999572753906,21.55900001525879 17.597999572753906,21.55900001525879 C17.597999572753906,21.55900001525879 17.42099952697754,21.457000732421875 17.42099952697754,21.457000732421875 C17.42099952697754,21.457000732421875 17.26099967956543,21.583999633789062 17.26099967956543,21.583999633789062 C15.097000122070312,23.315000534057617 12.666999816894531,24.739999771118164 10.048999786376953,25.767000198364258 C10.048999786376953,25.767000198364258 9.859000205993652,25.84000015258789 9.859000205993652,25.84000015258789 C9.859000205993652,25.84000015258789 9.859000205993652,26.04599952697754 9.859000205993652,26.04599952697754 C9.859000205993652,26.04599952697754 9.859000205993652,34.71900177001953 9.859000205993652,34.71900177001953 C9.859000205993652,34.71900177001953 -9.83899974822998,34.71900177001953 -9.83899974822998,34.71900177001953 C-9.83899974822998,34.71900177001953 -9.83899974822998,26.06399917602539 -9.83899974822998,26.06399917602539 C-9.83899974822998,26.06399917602539 -9.83899974822998,25.858999252319336 -9.83899974822998,25.858999252319336 C-9.83899974822998,25.858999252319336 -10.029999732971191,25.785999298095703 -10.029999732971191,25.785999298095703 C-12.64900016784668,24.759000778198242 -15.097000122070312,23.333999633789062 -17.240999221801758,21.604000091552734 C-17.240999221801758,21.604000091552734 -17.400999069213867,21.475000381469727 -17.400999069213867,21.475000381469727 C-17.400999069213867,21.475000381469727 -17.57900047302246,21.577999114990234 -17.57900047302246,21.577999114990234 C-17.57900047302246,21.577999114990234 -25.06999969482422,25.90399932861328 -25.06999969482422,25.90399932861328 C-25.06999969482422,25.90399932861328 -34.9379997253418,8.805000305175781 -34.9379997253418,8.805000305175781 C-34.9379997253418,8.805000305175781 -27.44700050354004,4.478000164031982 -27.44700050354004,4.478000164031982 C-27.44700050354004,4.478000164031982 -27.268999099731445,4.375 -27.268999099731445,4.375 C-27.268999099731445,4.375 -27.301000595092773,4.172999858856201 -27.301000595092773,4.172999858856201 C-27.509000778198242,2.805999994277954 -27.604000091552734,1.4179999828338623 -27.604000091552734,-0.009999999776482582 C-27.604000091552734,-1.434999942779541 -27.489999771118164,-2.822999954223633 -27.299999237060547,-4.195000171661377 C-27.299999237060547,-4.195000171661377 -27.27199935913086,-4.394999980926514 -27.27199935913086,-4.394999980926514 C-27.27199935913086,-4.394999980926514 -27.44700050354004,-4.497000217437744 -27.44700050354004,-4.497000217437744 C-27.44700050354004,-4.497000217437744 -34.9379997253418,-8.824000358581543 -34.9379997253418,-8.824000358581543 C-34.9379997253418,-8.824000358581543 -25.089000701904297,-25.90399932861328 -25.089000701904297,-25.90399932861328 C-25.089000701904297,-25.90399932861328 -17.597999572753906,-21.57699966430664 -17.597999572753906,-21.57699966430664 C-17.597999572753906,-21.57699966430664 -17.42099952697754,-21.475000381469727 -17.42099952697754,-21.475000381469727 C-17.42099952697754,-21.475000381469727 -17.26099967956543,-21.601999282836914 -17.26099967956543,-21.601999282836914 C-15.095999717712402,-23.332000732421875 -12.666999816894531,-24.759000778198242 -10.048999786376953,-25.78499984741211 C-10.048999786376953,-25.78499984741211 -9.857999801635742,-25.858999252319336 -9.857999801635742,-25.858999252319336 C-9.857999801635742,-25.858999252319336 -9.857999801635742,-26.06399917602539 -9.857999801635742,-26.06399917602539 C-9.857999801635742,-26.06399917602539 -9.857999801635742,-34.71900177001953 -9.857999801635742,-34.71900177001953 C-9.857999801635742,-34.71900177001953 9.83899974822998,-34.71900177001953 9.83899974822998,-34.71900177001953 C9.83899974822998,-34.71900177001953 9.83899974822998,-26.04400062561035 9.83899974822998,-26.04400062561035 C9.83899974822998,-26.04400062561035 9.83899974822998,-25.84000015258789 9.83899974822998,-25.84000015258789 C9.83899974822998,-25.84000015258789 10.029000282287598,-25.766000747680664 10.029000282287598,-25.766000747680664 C12.64799976348877,-24.739999771118164 15.07699966430664,-23.312999725341797 17.242000579833984,-21.58300018310547 C17.242000579833984,-21.58300018310547 17.402999877929688,-21.45599937438965 17.402999877929688,-21.45599937438965 C17.402999877929688,-21.45599937438965 17.57900047302246,-21.55699920654297 17.57900047302246,-21.55699920654297 C17.57900047302246,-21.55699920654297 25.070999145507812,-25.885000228881836 25.070999145507812,-25.885000228881836 C25.070999145507812,-25.885000228881836 34.91899871826172,-8.805000305175781 34.91899871826172,-8.805000305175781 C34.91899871826172,-8.805000305175781 27.42799949645996,-4.4770002365112305 27.42799949645996,-4.4770002365112305 C27.42799949645996,-4.4770002365112305 27.25,-4.374000072479248 27.25,-4.374000072479248 C27.25,-4.374000072479248 27.2810001373291,-4.172999858856201 27.2810001373291,-4.172999858856201 C27.489999771118164,-2.802999973297119 27.604000091552734,-1.4140000343322754 27.604000091552734,0.010999999940395355 C27.604000091552734,0.010999999940395355 27.604000091552734,0.014999999664723873 27.604000091552734,0.014999999664723873 C27.62299919128418,1.4170000553131104 27.509000778198242,2.803999900817871 27.299999237060547,4.172999858856201z"></path></g><g opacity="1" transform="matrix(1,0,0,1,90.8290023803711,91.36599731445312)"><path fill="rgb(19,16,33)" fill-opacity="1" d=" M10.159000396728516,35.018001556396484 C10.159000396728516,35.018001556396484 -10.138999938964844,35.018001556396484 -10.138999938964844,35.018001556396484 C-10.138999938964844,35.018001556396484 -10.138999938964844,26.06399917602539 -10.138999938964844,26.06399917602539 C-12.786999702453613,25.024999618530273 -15.23900032043457,23.604000091552734 -17.42799949645996,21.836999893188477 C-17.42799949645996,21.836999893188477 -25.18000030517578,26.31399917602539 -25.18000030517578,26.31399917602539 C-25.18000030517578,26.31399917602539 -35.34700012207031,8.694999694824219 -35.34700012207031,8.694999694824219 C-35.34700012207031,8.694999694824219 -27.597000122070312,4.2170000076293945 -27.597000122070312,4.2170000076293945 C-27.80299949645996,2.86299991607666 -27.902999877929688,1.4809999465942383 -27.902999877929688,-0.009999999776482582 C-27.902999877929688,-1.3660000562667847 -27.80299949645996,-2.749000072479248 -27.597000122070312,-4.236999988555908 C-27.597000122070312,-4.236999988555908 -35.34700012207031,-8.71399974822998 -35.34700012207031,-8.71399974822998 C-35.34700012207031,-8.71399974822998 -25.197999954223633,-26.31399917602539 -25.197999954223633,-26.31399917602539 C-25.197999954223633,-26.31399917602539 -17.447999954223633,-21.836999893188477 -17.447999954223633,-21.836999893188477 C-15.215999603271484,-23.621999740600586 -12.763999938964844,-25.042999267578125 -10.157999992370605,-26.06399917602539 C-10.157999992370605,-26.06399917602539 -10.157999992370605,-35.01900100708008 -10.157999992370605,-35.01900100708008 C-10.157999992370605,-35.01900100708008 10.138999938964844,-35.01900100708008 10.138999938964844,-35.01900100708008 C10.138999938964844,-35.01900100708008 10.138999938964844,-26.045000076293945 10.138999938964844,-26.045000076293945 C12.746000289916992,-25.02400016784668 15.197999954223633,-23.601999282836914 17.43000030517578,-21.81800079345703 C17.43000030517578,-21.81800079345703 25.180999755859375,-26.295000076293945 25.180999755859375,-26.295000076293945 C25.180999755859375,-26.295000076293945 35.32899856567383,-8.694999694824219 35.32899856567383,-8.694999694824219 C35.32899856567383,-8.694999694824219 27.57900047302246,-4.2179999351501465 27.57900047302246,-4.2179999351501465 C27.797000885009766,-2.7809998989105225 27.90399932861328,-1.3980000019073486 27.90399932861328,0.009999999776482582 C27.922000885009766,1.3630000352859497 27.822999954223633,2.739000082015991 27.597000122070312,4.2170000076293945 C27.597000122070312,4.2170000076293945 35.34700012207031,8.694999694824219 35.34700012207031,8.694999694824219 C35.34700012207031,8.694999694824219 25.200000762939453,26.29599952697754 25.200000762939453,26.29599952697754 C25.200000762939453,26.29599952697754 17.448999404907227,21.81800079345703 17.448999404907227,21.81800079345703 C17.448999404907227,21.81800079345703 17.447999954223633,21.81800079345703 17.447999954223633,21.81800079345703 C15.218000411987305,23.60099983215332 12.765999794006348,25.023000717163086 10.159000396728516,26.04599952697754 C10.159000396728516,26.04599952697754 10.159000396728516,35.018001556396484 10.159000396728516,35.018001556396484z M-9.538999557495117,34.417999267578125 C-9.538999557495117,34.417999267578125 9.559000015258789,34.417999267578125 9.559000015258789,34.417999267578125 C9.559000015258789,34.417999267578125 9.559000015258789,25.635000228881836 9.559000015258789,25.635000228881836 C9.559000015258789,25.635000228881836 9.9399995803833,25.486000061035156 9.9399995803833,25.486000061035156 C12.491000175476074,24.486000061035156 14.890999794006348,23.094999313354492 17.073999404907227,21.350000381469727 C17.073999404907227,21.350000381469727 17.393999099731445,21.09600067138672 17.393999099731445,21.09600067138672 C17.393999099731445,21.09600067138672 24.979000091552734,25.475000381469727 24.979000091552734,25.475000381469727 C24.979000091552734,25.475000381469727 34.52899932861328,8.913000106811523 34.52899932861328,8.913000106811523 C34.52899932861328,8.913000106811523 26.94099998474121,4.531000137329102 26.94099998474121,4.531000137329102 C26.94099998474121,4.531000137329102 27.003000259399414,4.127999782562256 27.003000259399414,4.127999782562256 C27.224000930786133,2.684000015258789 27.322999954223633,1.3380000591278076 27.304000854492188,0.017999999225139618 C27.304000854492188,-1.3680000305175781 27.200000762939453,-2.7219998836517334 26.985000610351562,-4.126999855041504 C26.985000610351562,-4.126999855041504 26.922000885009766,-4.5320000648498535 26.922000885009766,-4.5320000648498535 C26.922000885009766,-4.5320000648498535 34.5099983215332,-8.914999961853027 34.5099983215332,-8.914999961853027 C34.5099983215332,-8.914999961853027 24.961000442504883,-25.475000381469727 24.961000442504883,-25.475000381469727 C24.961000442504883,-25.475000381469727 17.375999450683594,-21.0939998626709 17.375999450683594,-21.0939998626709 C17.375999450683594,-21.0939998626709 17.05500030517578,-21.350000381469727 17.05500030517578,-21.350000381469727 C14.871000289916992,-23.09600067138672 12.470000267028809,-24.488000869750977 9.920000076293945,-25.48699951171875 C9.920000076293945,-25.48699951171875 9.539999961853027,-25.63599967956543 9.539999961853027,-25.63599967956543 C9.539999961853027,-25.63599967956543 9.539999961853027,-34.41899871826172 9.539999961853027,-34.41899871826172 C9.539999961853027,-34.41899871826172 -9.557999610900879,-34.41899871826172 -9.557999610900879,-34.41899871826172 C-9.557999610900879,-34.41899871826172 -9.557999610900879,-25.655000686645508 -9.557999610900879,-25.655000686645508 C-9.557999610900879,-25.655000686645508 -9.939000129699707,-25.506000518798828 -9.939000129699707,-25.506000518798828 C-12.48900032043457,-24.506999969482422 -14.888999938964844,-23.114999771118164 -17.072999954223633,-21.368999481201172 C-17.072999954223633,-21.368999481201172 -17.39299964904785,-21.113000869750977 -17.39299964904785,-21.113000869750977 C-17.39299964904785,-21.113000869750977 -24.97800064086914,-25.493999481201172 -24.97800064086914,-25.493999481201172 C-24.97800064086914,-25.493999481201172 -34.52799987792969,-8.934000015258789 -34.52799987792969,-8.934000015258789 C-34.52799987792969,-8.934000015258789 -26.945999145507812,-4.554999828338623 -26.945999145507812,-4.554999828338623 C-26.945999145507812,-4.554999828338623 -27.00200080871582,-4.1539998054504395 -27.00200080871582,-4.1539998054504395 C-27.204999923706055,-2.693000078201294 -27.304000854492188,-1.3380000591278076 -27.304000854492188,-0.009999999776482582 C-27.304000854492188,1.4509999752044678 -27.20599937438965,2.805000066757202 -27.003999710083008,4.127999782562256 C-27.003999710083008,4.127999782562256 -26.94099998474121,4.531000137329102 -26.94099998474121,4.531000137329102 C-26.94099998474121,4.531000137329102 -34.52799987792969,8.913000106811523 -34.52799987792969,8.913000106811523 C-34.52799987792969,8.913000106811523 -24.959999084472656,25.493000030517578 -24.959999084472656,25.493000030517578 C-24.959999084472656,25.493000030517578 -17.37299919128418,21.111000061035156 -17.37299919128418,21.111000061035156 C-17.37299919128418,21.111000061035156 -17.05299949645996,21.368999481201172 -17.05299949645996,21.368999481201172 C-14.91100025177002,23.097999572753906 -12.51099967956543,24.489999771118164 -9.920000076293945,25.506999969482422 C-9.920000076293945,25.506999969482422 -9.538999557495117,25.65399932861328 -9.538999557495117,25.65399932861328 C-9.538999557495117,25.65399932861328 -9.538999557495117,34.417999267578125 -9.538999557495117,34.417999267578125z"></path></g></g><g transform="matrix(1,0,0,1,0,0)" opacity="1" style="display: block;"><g opacity="1" transform="matrix(1,0,0,1,90.87799835205078,91.41500091552734)"><path fill="rgb(255,255,255)" fill-opacity="1" d=" M0,11.020000457763672 C6.077000141143799,11.020000457763672 11.003000259399414,6.085999965667725 11.003000259399414,0 C11.003000259399414,-6.085999965667725 6.077000141143799,-11.020000457763672 0,-11.020000457763672 C-6.077000141143799,-11.020000457763672 -11.003000259399414,-6.085999965667725 -11.003000259399414,0 C-11.003000259399414,6.085999965667725 -6.077000141143799,11.020000457763672 0,11.020000457763672z"></path></g><g opacity="1" transform="matrix(1,0,0,1,85.27999877929688,85.70099639892578)"><path fill="rgb(19,16,33)" fill-opacity="1" d=" M-5.105000019073486,5.60699987411499 C-5.105000019073486,5.60699987411499 -5.704999923706055,5.60699987411499 -5.704999923706055,5.60699987411499 C-5.704999923706055,-0.5759999752044678 -0.5860000252723694,-5.60699987411499 5.704999923706055,-5.60699987411499 C5.704999923706055,-5.60699987411499 5.704999923706055,-5.006999969482422 5.704999923706055,-5.006999969482422 C-0.2549999952316284,-5.006999969482422 -5.105000019073486,-0.24500000476837158 -5.105000019073486,5.60699987411499z"></path></g></g><g transform="matrix(1,0,0,1,-4.5,0)" opacity="1" style="display: block;"><g opacity="1" transform="matrix(1,0,0,1,34.61399841308594,154.072998046875)"><path fill="rgb(180,183,200)" fill-opacity="1" d=" M-8.380000114440918,-8.717000007629395 C-8.380000114440918,-8.717000007629395 -3.6070001125335693,-10.831000328063965 -3.6070001125335693,-10.831000328063965 C-3.6070001125335693,-10.831000328063965 -4.985000133514404,-5.230999946594238 -2.864000082015991,-3.6470000743865967 C-0.8790000081062317,-2.1630001068115234 4.931000232696533,-4.228000164031982 6.788000106811523,-1.9559999704360962 C8.380000114440918,-0.007000000216066837 7.318999767303467,9.034000396728516 7.318999767303467,9.034000396728516 C7.318999767303467,9.034000396728516 3.9240000247955322,10.831000328063965 3.9240000247955322,10.831000328063965 C3.9240000247955322,10.831000328063965 5.034999847412109,3.382999897003174 3.0769999027252197,1.74399995803833 C0.42399999499320984,-0.47600001096725464 -3.9200000762939453,2.2119998931884766 -5.72599983215332,1.003999948501587 C-8.380000114440918,-0.7670000195503235 -8.380000114440918,-8.717000007629395 -8.380000114440918,-8.717000007629395z"></path></g><g opacity="1" transform="matrix(1,0,0,1,34.61199951171875,154.06100463867188)"><path fill="rgb(19,16,33)" fill-opacity="1" d=" M3.927000045776367,11.142999649047852 C3.865999937057495,11.142999649047852 3.805000066757202,11.12399959564209 3.753000020980835,11.088000297546387 C3.6610000133514404,11.022000312805176 3.61299991607666,10.90999984741211 3.630000114440918,10.798999786376953 C3.931999921798706,8.772000312805176 4.386000156402588,3.240999937057495 2.88700008392334,1.9859999418258667 C1.4780000448226929,0.8069999814033508 -0.5199999809265137,1.128000020980835 -2.2799999713897705,1.409999966621399 C-3.687000036239624,1.6349999904632568 -5.015999794006348,1.8489999771118164 -5.889999866485596,1.2649999856948853 C-8.645999908447266,-0.5730000138282776 -8.677000045776367,-8.37399959564209 -8.677000045776367,-8.704999923706055 C-8.677000045776367,-8.824000358581543 -8.607000350952148,-8.932000160217285 -8.49899959564209,-8.979000091552734 C-8.49899959564209,-8.979000091552734 -3.7260000705718994,-11.093999862670898 -3.7260000705718994,-11.093999862670898 C-3.621999979019165,-11.142999649047852 -3.5,-11.12399959564209 -3.4110000133514404,-11.048999786376953 C-3.3239998817443848,-10.97599983215332 -3.2850000858306885,-10.857999801635742 -3.312999963760376,-10.748000144958496 C-3.3259999752044678,-10.692999839782715 -4.619999885559082,-5.322000026702881 -2.681999921798706,-3.875 C-1.875,-3.2709999084472656 -0.2770000100135803,-3.321000099182129 1.409999966621399,-3.368000030517578 C3.621999979019165,-3.437000036239624 5.906000137329102,-3.500999927520752 7.0229997634887695,-2.134000062942505 C8.677000045776367,-0.10899999737739563 7.663000106811523,8.706999778747559 7.61899995803833,9.081000328063965 C7.607999801635742,9.178999900817871 7.548999786376953,9.265000343322754 7.460999965667725,9.312000274658203 C7.460999965667725,9.312000274658203 4.066999912261963,11.107999801635742 4.066999912261963,11.107999801635742 C4.0229997634887695,11.130999565124512 3.9749999046325684,11.142999649047852 3.927000045776367,11.142999649047852z M0.20600000023841858,0.5419999957084656 C1.3009999990463257,0.5419999957084656 2.368000030517578,0.7699999809265137 3.2709999084472656,1.524999976158142 C5.021999835968018,2.990000009536743 4.520999908447266,8.482999801635742 4.300000190734863,10.305999755859375 C4.300000190734863,10.305999755859375 7.040999889373779,8.854999542236328 7.040999889373779,8.854999542236328 C7.333000183105469,6.258999824523926 7.7729997634887695,-0.2680000066757202 6.558000087738037,-1.7549999952316284 C5.627999782562256,-2.8929998874664307 3.492000102996826,-2.8289999961853027 1.4279999732971191,-2.7690000534057617 C-0.3720000088214874,-2.7160000801086426 -2.065999984741211,-2.6659998893737793 -3.0420000553131104,-3.3949999809265137 C-4.894000053405762,-4.7769999504089355 -4.317999839782715,-8.786999702453613 -4.021999835968018,-10.307000160217285 C-4.021999835968018,-10.307000160217285 -8.074999809265137,-8.51099967956543 -8.074999809265137,-8.51099967956543 C-8.052000045776367,-7.295000076293945 -7.824999809265137,-0.746999979019165 -5.557000160217285,0.765999972820282 C-4.879000186920166,1.222000002861023 -3.6630001068115234,1.0240000486373901 -2.375999927520752,0.8169999718666077 C-1.5420000553131104,0.6840000152587891 -0.6589999794960022,0.5419999957084656 0.20600000023841858,0.5419999957084656z"></path></g></g><g transform="matrix(0.8600000143051147,0,0,0.8600000143051147,21.55999755859375,7)" opacity="1" style="display: block;"><g opacity="1" transform="matrix(1,0,0,1,142.61599731445312,20.67300033569336)"><path fill="rgb(225,228,240)" fill-opacity="1" d=" M-13.02400016784668,-5.932000160217285 C-13.02400016784668,-5.932000160217285 7.73799991607666,14.371999740600586 7.73799991607666,14.371999740600586 C7.73799991607666,14.371999740600586 13.02400016784668,-14.371999740600586 13.02400016784668,-14.371999740600586 C13.02400016784668,-14.371999740600586 -13.02400016784668,-5.932000160217285 -13.02400016784668,-5.932000160217285z"></path></g><g opacity="1" transform="matrix(1,0,0,1,142.61500549316406,20.663000106811523)"><path fill="rgb(19,16,33)" fill-opacity="1" d=" M7.738999843597412,14.682000160217285 C7.6620001792907715,14.682000160217285 7.585999965667725,14.652000427246094 7.5289998054504395,14.595999717712402 C7.5289998054504395,14.595999717712402 -13.232000350952148,-5.708000183105469 -13.232000350952148,-5.708000183105469 C-13.307999610900879,-5.781000137329102 -13.33899974822998,-5.888000011444092 -13.314000129699707,-5.989999771118164 C-13.291000366210938,-6.0920000076293945 -13.21500015258789,-6.173999786376953 -13.114999771118164,-6.205999851226807 C-13.114999771118164,-6.205999851226807 12.932999610900879,-14.647000312805176 12.932999610900879,-14.647000312805176 C13.031000137329102,-14.680999755859375 13.145000457763672,-14.657999992370605 13.222999572753906,-14.586999893188477 C13.303000450134277,-14.517999649047852 13.34000015258789,-14.413000106811523 13.319999694824219,-14.309000015258789 C13.319999694824219,-14.309000015258789 8.034000396728516,14.435999870300293 8.034000396728516,14.435999870300293 C8.015000343322754,14.545000076293945 7.935999870300293,14.633000373840332 7.829999923706055,14.666999816894531 C7.800000190734863,14.675999641418457 7.769999980926514,14.682000160217285 7.738999843597412,14.682000160217285z M-12.458000183105469,-5.789999961853027 C-12.458000183105469,-5.789999961853027 7.546000003814697,13.77299976348877 7.546000003814697,13.77299976348877 C7.546000003814697,13.77299976348877 12.640000343322754,-13.920999526977539 12.640000343322754,-13.920999526977539 C12.640000343322754,-13.920999526977539 -12.458000183105469,-5.789999961853027 -12.458000183105469,-5.789999961853027z"></path></g></g><g transform="matrix(1,0,0,1,0,0)" opacity="1" style="display: block;"><g opacity="1" transform="matrix(1,0,0,1,155.53599548339844,21.610000610351562)"><path fill="rgb(19,16,33)" fill-opacity="1" d=" M0.0010000000474974513,7.6020002365112305 C4.201000213623047,7.6020002365112305 7.605000019073486,4.197999954223633 7.605000019073486,-0.0010000000474974513 C7.605000019073486,-4.198999881744385 4.201000213623047,-7.6020002365112305 0.0010000000474974513,-7.6020002365112305 C-4.199999809265137,-7.6020002365112305 -7.605000019073486,-4.198999881744385 -7.605000019073486,-0.0010000000474974513 C-7.605000019073486,4.197999954223633 -4.199999809265137,7.6020002365112305 0.0010000000474974513,7.6020002365112305z"></path></g></g></g></svg>