<svg xmlns="http://www.w3.org/2000/svg" xmlns:xlink="http://www.w3.org/1999/xlink" viewBox="0 0 180 180" width="180" height="180" preserveAspectRatio="xMidYMid meet" style="width: 100%; height: 100%; transform: translate3d(0px, 0px, 0px); content-visibility: visible;"><defs><clipPath id="__lottie_element_9"><rect width="180" height="180" x="0" y="0"></rect></clipPath><symbol id="__lottie_element_25"><g><g transform="matrix(1,0,0,1,90,90)" opacity="1" style="display: block;"><g opacity="1" transform="matrix(1,0,0,1,0,0)"><path fill="rgb(19,16,34)" fill-opacity="1" d=" M80.25,-26.5 C10.5,42.5 0.5,-7 -58.75,52.25 C-51.5,52.25 80.25,52.25 80.25,52.25 C80.25,52.25 80.25,-14.25 80.25,-26.5z"></path></g></g></g></symbol><mask id="__lottie_element_25_1" mask-type="alpha"><use xlink:href="#__lottie_element_25"></use></mask></defs><g clip-path="url(#__lottie_element_9)"><g transform="matrix(1,0,0,1,0,0)" opacity="1" style="display: block;"><g opacity="1" transform="matrix(1,0,0,1,100.96399688720703,103.08899688720703)"><path fill="rgb(87,92,122)" fill-opacity="1" d=" M72.6969985961914,43.275001525878906 C72.6969985961914,43.275001525878906 -72.6969985961914,43.275001525878906 -72.6969985961914,43.275001525878906 C-72.6969985961914,43.275001525878906 -72.6969985961914,-40.22700119018555 -72.6969985961914,-40.22700119018555 C-72.6969985961914,-41.90999984741211 -71.33200073242188,-43.275001525878906 -69.64800262451172,-43.275001525878906 C-69.64800262451172,-43.275001525878906 69.6500015258789,-43.275001525878906 69.6500015258789,-43.275001525878906 C71.33300018310547,-43.275001525878906 72.6969985961914,-41.90999984741211 72.6969985961914,-40.22700119018555 C72.6969985961914,-40.22700119018555 72.6969985961914,43.275001525878906 72.6969985961914,43.275001525878906z"></path></g><g opacity="1" transform="matrix(1,0,0,1,100.96499633789062,102.8219985961914)"><path fill="rgb(255,255,255)" fill-opacity="1" d=" M69.75399780273438,39.82600021362305 C69.75399780273438,39.82600021362305 -69.75399780273438,39.82600021362305 -69.75399780273438,39.82600021362305 C-69.75399780273438,39.82600021362305 -69.75399780273438,-39.82600021362305 -69.75399780273438,-39.82600021362305 C-69.75399780273438,-39.82600021362305 69.75399780273438,-39.82600021362305 69.75399780273438,-39.82600021362305 C69.75399780273438,-39.82600021362305 69.75399780273438,39.82600021362305 69.75399780273438,39.82600021362305z"></path></g></g><g transform="matrix(1,0,0,1,0,0)" opacity="1" style="display: block;"><g opacity="1" transform="matrix(1,0,0,1,100.96299743652344,151.78900146484375)"><path fill="rgb(255,255,255)" fill-opacity="1" d=" M71.66899871826172,5.428999900817871 C71.66899871826172,5.428999900817871 -71.66699981689453,5.428999900817871 -71.66699981689453,5.428999900817871 C-73.7770004272461,5.428999900817871 -75.64700317382812,3.8389999866485596 -76.3010025024414,1.4910000562667847 C-76.3010025024414,1.4910000562667847 -77.27300262451172,-1.996999979019165 -77.27300262451172,-1.996999979019165 C-77.74500274658203,-3.691999912261963 -76.66600036621094,-5.429999828338623 -75.1449966430664,-5.429999828338623 C-75.1449966430664,-5.429999828338623 75.14700317382812,-5.429999828338623 75.14700317382812,-5.429999828338623 C76.66699981689453,-5.429999828338623 77.74500274658203,-3.691999912261963 77.27400207519531,-1.996999979019165 C77.27400207519531,-1.996999979019165 76.302001953125,1.4910000562667847 76.302001953125,1.4910000562667847 C75.64800262451172,3.8389999866485596 73.77899932861328,5.428999900817871 71.66899871826172,5.428999900817871z"></path></g><g opacity="1" transform="matrix(1,0,0,1,100.96399688720703,151.78900146484375)"><path fill="rgb(19,16,33)" fill-opacity="1" d=" M-75.78099822998047,1.3480000495910645 C-75.78099822998047,1.3480000495910645 -75.78099822998047,1.3480000495910645 -75.78099822998047,1.3480000495910645 C-75.78099822998047,1.3480000495910645 -76.75299835205078,-2.1410000324249268 -76.75299835205078,-2.1410000324249268 C-76.947998046875,-2.8410000801086426 -76.81999969482422,-3.5439999103546143 -76.49800109863281,-4.064000129699707 C-76.1760025024414,-4.584000110626221 -75.68399810791016,-4.889999866485596 -75.1449966430664,-4.889999866485596 C-75.1449966430664,-4.889999866485596 75.14600372314453,-4.889999866485596 75.14600372314453,-4.889999866485596 C75.68399810791016,-4.889999866485596 76.1760025024414,-4.584000110626221 76.4990005493164,-4.064000129699707 C76.8219985961914,-3.5439999103546143 76.947998046875,-2.8410000801086426 76.75299835205078,-2.1410000324249268 C76.75299835205078,-2.1410000324249268 75.78299713134766,1.3480000495910645 75.78299713134766,1.3480000495910645 C75.17900085449219,3.510999917984009 73.48899841308594,4.889999866485596 71.66899871826172,4.889999866485596 C71.66899871826172,4.889999866485596 -71.66799926757812,4.889999866485596 -71.66799926757812,4.889999866485596 C-73.48799896240234,4.889999866485596 -75.17900085449219,3.510999917984009 -75.78099822998047,1.3480000495910645z M77.2750015258789,-1.996000051498413 C77.74600219726562,-3.690999984741211 76.66699981689453,-5.429999828338623 75.14600372314453,-5.429999828338623 C75.14600372314453,-5.429999828338623 -75.1449966430664,-5.429999828338623 -75.1449966430664,-5.429999828338623 C-76.66699981689453,-5.429999828338623 -77.74500274658203,-3.690999984741211 -77.27300262451172,-1.996000051498413 C-77.27300262451172,-1.996000051498413 -76.302001953125,1.4919999837875366 -76.302001953125,1.4919999837875366 C-75.64800262451172,3.8399999141693115 -73.77799987792969,5.429999828338623 -71.66799926757812,5.429999828338623 C-71.66799926757812,5.429999828338623 71.66899871826172,5.429999828338623 71.66899871826172,5.429999828338623 C73.77899932861328,5.429999828338623 75.64800262451172,3.8399999141693115 76.3010025024414,1.4919999837875366 C76.3010025024414,1.4919999837875366 77.2750015258789,-1.996000051498413 77.2750015258789,-1.996000051498413z"></path></g></g><g transform="matrix(1,0,0,1,90,90)" opacity="1" style="display: block;"><g opacity="1" transform="matrix(1,0,0,1,0,0)"><path fill="rgb(19,16,34)" fill-opacity="1" d=" M80.25,-26.5 C10.5,42.5 0.5,-7 -58.75,52.25 C-51.5,52.25 80.25,52.25 80.25,52.25 C80.25,52.25 80.25,-14.25 80.25,-26.5z"></path></g></g><g transform="matrix(1,0,0,1,0,0)" opacity="1" style="display: block;"><g opacity="1" transform="matrix(1,0,0,1,56.80699920654297,102.81400299072266)"><path fill="rgb(87,92,122)" fill-opacity="1" d=" M-20.113000869750977,31.378000259399414 C-20.113000869750977,33.19200134277344 -18.64299964904785,34.66299819946289 -16.82900047302246,34.66299819946289 C-16.82900047302246,34.66299819946289 16.82900047302246,34.66299819946289 16.82900047302246,34.66299819946289 C18.642000198364258,34.66299819946289 20.113000869750977,33.19200134277344 20.113000869750977,31.378000259399414 C20.113000869750977,31.378000259399414 20.113000869750977,-31.378999710083008 20.113000869750977,-31.378999710083008 C20.113000869750977,-33.19300079345703 18.642000198364258,-34.66400146484375 16.82900047302246,-34.66400146484375 C16.82900047302246,-34.66400146484375 -16.82900047302246,-34.66400146484375 -16.82900047302246,-34.66400146484375 C-18.64299964904785,-34.66400146484375 -20.113000869750977,-33.19300079345703 -20.113000869750977,-31.378999710083008 C-20.113000869750977,-31.378999710083008 -20.113000869750977,31.378000259399414 -20.113000869750977,31.378000259399414z M-16.82900047302246,34.0629997253418 C-18.31100082397461,34.0629997253418 -19.51300048828125,32.861000061035156 -19.51300048828125,31.378000259399414 C-19.51300048828125,31.378000259399414 -19.51300048828125,-31.378999710083008 -19.51300048828125,-31.378999710083008 C-19.51300048828125,-32.86199951171875 -18.31100082397461,-34.0629997253418 -16.82900047302246,-34.0629997253418 C-16.82900047302246,-34.0629997253418 16.82900047302246,-34.0629997253418 16.82900047302246,-34.0629997253418 C18.31100082397461,-34.0629997253418 19.51300048828125,-32.86199951171875 19.51300048828125,-31.378999710083008 C19.51300048828125,-31.378999710083008 19.51300048828125,31.378000259399414 19.51300048828125,31.378000259399414 C19.51300048828125,32.861000061035156 18.31100082397461,34.0629997253418 16.82900047302246,34.0629997253418 C16.82900047302246,34.0629997253418 -16.82900047302246,34.0629997253418 -16.82900047302246,34.0629997253418z"></path></g><g opacity="1" transform="matrix(1,0,0,1,100.97799682617188,102.81400299072266)"><path fill="rgb(87,92,122)" fill-opacity="1" d=" M-20.113000869750977,31.378000259399414 C-20.113000869750977,33.19200134277344 -18.64299964904785,34.66299819946289 -16.82900047302246,34.66299819946289 C-16.82900047302246,34.66299819946289 16.82900047302246,34.66299819946289 16.82900047302246,34.66299819946289 C18.643999099731445,34.66299819946289 20.113000869750977,33.19200134277344 20.113000869750977,31.378000259399414 C20.113000869750977,31.378000259399414 20.113000869750977,-31.378999710083008 20.113000869750977,-31.378999710083008 C20.113000869750977,-33.19300079345703 18.643999099731445,-34.66400146484375 16.82900047302246,-34.66400146484375 C16.82900047302246,-34.66400146484375 -16.82900047302246,-34.66400146484375 -16.82900047302246,-34.66400146484375 C-18.64299964904785,-34.66400146484375 -20.113000869750977,-33.19300079345703 -20.113000869750977,-31.378999710083008 C-20.113000869750977,-31.378999710083008 -20.113000869750977,31.378000259399414 -20.113000869750977,31.378000259399414z M-16.82900047302246,34.0629997253418 C-18.31100082397461,34.0629997253418 -19.51300048828125,32.861000061035156 -19.51300048828125,31.378000259399414 C-19.51300048828125,31.378000259399414 -19.51300048828125,-31.378999710083008 -19.51300048828125,-31.378999710083008 C-19.51300048828125,-32.86199951171875 -18.31100082397461,-34.0629997253418 -16.82900047302246,-34.0629997253418 C-16.82900047302246,-34.0629997253418 16.82900047302246,-34.0629997253418 16.82900047302246,-34.0629997253418 C18.312000274658203,-34.0629997253418 19.513999938964844,-32.86199951171875 19.513999938964844,-31.378999710083008 C19.513999938964844,-31.378999710083008 19.513999938964844,31.378000259399414 19.513999938964844,31.378000259399414 C19.513999938964844,32.861000061035156 18.312000274658203,34.0629997253418 16.82900047302246,34.0629997253418 C16.82900047302246,34.0629997253418 -16.82900047302246,34.0629997253418 -16.82900047302246,34.0629997253418z"></path></g><g opacity="1" transform="matrix(1,0,0,1,145.14999389648438,84.5)"><path fill="rgb(87,92,122)" fill-opacity="1" d=" M-20.113000869750977,13.060999870300293 C-20.113000869750977,14.875 -18.642000198364258,16.34600067138672 -16.827999114990234,16.34600067138672 C-16.827999114990234,16.34600067138672 16.82900047302246,16.34600067138672 16.82900047302246,16.34600067138672 C18.643999099731445,16.34600067138672 20.113000869750977,14.875 20.113000869750977,13.060999870300293 C20.113000869750977,13.060999870300293 20.113000869750977,-13.062000274658203 20.113000869750977,-13.062000274658203 C20.113000869750977,-14.87600040435791 18.643999099731445,-16.34600067138672 16.82900047302246,-16.34600067138672 C16.82900047302246,-16.34600067138672 -16.827999114990234,-16.34600067138672 -16.827999114990234,-16.34600067138672 C-18.642000198364258,-16.34600067138672 -20.113000869750977,-14.87600040435791 -20.113000869750977,-13.062000274658203 C-20.113000869750977,-13.062000274658203 -20.113000869750977,13.060999870300293 -20.113000869750977,13.060999870300293z M-16.827999114990234,15.744999885559082 C-18.309999465942383,15.744999885559082 -19.513999938964844,14.543999671936035 -19.513999938964844,13.060999870300293 C-19.513999938964844,13.060999870300293 -19.513999938964844,-13.062000274658203 -19.513999938964844,-13.062000274658203 C-19.513999938964844,-14.545000076293945 -18.309999465942383,-15.744999885559082 -16.827999114990234,-15.744999885559082 C-16.827999114990234,-15.744999885559082 16.82900047302246,-15.744999885559082 16.82900047302246,-15.744999885559082 C18.312000274658203,-15.744999885559082 19.513999938964844,-14.545000076293945 19.513999938964844,-13.062000274658203 C19.513999938964844,-13.062000274658203 19.513999938964844,13.060999870300293 19.513999938964844,13.060999870300293 C19.513999938964844,14.543999671936035 18.312000274658203,15.744999885559082 16.82900047302246,15.744999885559082 C16.82900047302246,15.744999885559082 -16.827999114990234,15.744999885559082 -16.827999114990234,15.744999885559082z"></path></g><g opacity="1" transform="matrix(1,0,0,1,145.14999389648438,121.13200378417969)"><path fill="rgb(87,92,122)" fill-opacity="1" d=" M-20.113000869750977,13.060999870300293 C-20.113000869750977,14.875 -18.642000198364258,16.34600067138672 -16.827999114990234,16.34600067138672 C-16.827999114990234,16.34600067138672 16.82900047302246,16.34600067138672 16.82900047302246,16.34600067138672 C18.643999099731445,16.34600067138672 20.113000869750977,14.875 20.113000869750977,13.060999870300293 C20.113000869750977,13.060999870300293 20.113000869750977,-13.062000274658203 20.113000869750977,-13.062000274658203 C20.113000869750977,-14.87600040435791 18.643999099731445,-16.34600067138672 16.82900047302246,-16.34600067138672 C16.82900047302246,-16.34600067138672 -16.827999114990234,-16.34600067138672 -16.827999114990234,-16.34600067138672 C-18.642000198364258,-16.34600067138672 -20.113000869750977,-14.87600040435791 -20.113000869750977,-13.062000274658203 C-20.113000869750977,-13.062000274658203 -20.113000869750977,13.060999870300293 -20.113000869750977,13.060999870300293z M-16.827999114990234,15.744999885559082 C-18.309999465942383,15.744999885559082 -19.513999938964844,14.543999671936035 -19.513999938964844,13.060999870300293 C-19.513999938964844,13.060999870300293 -19.513999938964844,-13.062000274658203 -19.513999938964844,-13.062000274658203 C-19.513999938964844,-14.543999671936035 -18.309999465942383,-15.744999885559082 -16.827999114990234,-15.744999885559082 C-16.827999114990234,-15.744999885559082 16.82900047302246,-15.744999885559082 16.82900047302246,-15.744999885559082 C18.312000274658203,-15.744999885559082 19.513999938964844,-14.543999671936035 19.513999938964844,-13.062000274658203 C19.513999938964844,-13.062000274658203 19.513999938964844,13.060999870300293 19.513999938964844,13.060999870300293 C19.513999938964844,14.543999671936035 18.312000274658203,15.744999885559082 16.82900047302246,15.744999885559082 C16.82900047302246,15.744999885559082 -16.827999114990234,15.744999885559082 -16.827999114990234,15.744999885559082z"></path></g></g><g mask="url(#__lottie_element_25_1)" style="display: block;"><g transform="matrix(1,0,0,1,0,0)" opacity="1"><g opacity="1" transform="matrix(1,0,0,1,56.80699920654297,102.82099914550781)"><path fill="rgb(255,255,255)" fill-opacity="1" d=" M-20.113000869750977,31.378000259399414 C-20.113000869750977,33.19200134277344 -18.64299964904785,34.66299819946289 -16.82900047302246,34.66299819946289 C-16.82900047302246,34.66299819946289 16.82900047302246,34.66299819946289 16.82900047302246,34.66299819946289 C18.642000198364258,34.66299819946289 20.113000869750977,33.19200134277344 20.113000869750977,31.378000259399414 C20.113000869750977,31.378000259399414 20.113000869750977,-31.378999710083008 20.113000869750977,-31.378999710083008 C20.113000869750977,-33.19300079345703 18.642000198364258,-34.66299819946289 16.82900047302246,-34.66299819946289 C16.82900047302246,-34.66299819946289 -16.82900047302246,-34.66299819946289 -16.82900047302246,-34.66299819946289 C-18.64299964904785,-34.66299819946289 -20.113000869750977,-33.19300079345703 -20.113000869750977,-31.378999710083008 C-20.113000869750977,-31.378999710083008 -20.113000869750977,31.378000259399414 -20.113000869750977,31.378000259399414z M-16.82900047302246,34.0620002746582 C-18.31100082397461,34.0620002746582 -19.51300048828125,32.861000061035156 -19.51300048828125,31.378000259399414 C-19.51300048828125,31.378000259399414 -19.51300048828125,-31.378999710083008 -19.51300048828125,-31.378999710083008 C-19.51300048828125,-32.86199951171875 -18.31100082397461,-34.0620002746582 -16.82900047302246,-34.0620002746582 C-16.82900047302246,-34.0620002746582 16.82900047302246,-34.0620002746582 16.82900047302246,-34.0620002746582 C18.31100082397461,-34.0620002746582 19.51300048828125,-32.86199951171875 19.51300048828125,-31.378999710083008 C19.51300048828125,-31.378999710083008 19.51300048828125,31.378000259399414 19.51300048828125,31.378000259399414 C19.51300048828125,32.861000061035156 18.31100082397461,34.0620002746582 16.82900047302246,34.0620002746582 C16.82900047302246,34.0620002746582 -16.82900047302246,34.0620002746582 -16.82900047302246,34.0620002746582z"></path></g><g opacity="1" transform="matrix(1,0,0,1,100.97799682617188,102.82099914550781)"><path fill="rgb(255,255,255)" fill-opacity="1" d=" M-20.113000869750977,31.378000259399414 C-20.113000869750977,33.19200134277344 -18.64299964904785,34.66299819946289 -16.82900047302246,34.66299819946289 C-16.82900047302246,34.66299819946289 16.82900047302246,34.66299819946289 16.82900047302246,34.66299819946289 C18.643999099731445,34.66299819946289 20.113000869750977,33.19200134277344 20.113000869750977,31.378000259399414 C20.113000869750977,31.378000259399414 20.113000869750977,-31.378999710083008 20.113000869750977,-31.378999710083008 C20.113000869750977,-33.19300079345703 18.643999099731445,-34.66299819946289 16.82900047302246,-34.66299819946289 C16.82900047302246,-34.66299819946289 -16.82900047302246,-34.66299819946289 -16.82900047302246,-34.66299819946289 C-18.64299964904785,-34.66299819946289 -20.113000869750977,-33.19300079345703 -20.113000869750977,-31.378999710083008 C-20.113000869750977,-31.378999710083008 -20.113000869750977,31.378000259399414 -20.113000869750977,31.378000259399414z M-16.82900047302246,34.0620002746582 C-18.31100082397461,34.0620002746582 -19.51300048828125,32.861000061035156 -19.51300048828125,31.378000259399414 C-19.51300048828125,31.378000259399414 -19.51300048828125,-31.378999710083008 -19.51300048828125,-31.378999710083008 C-19.51300048828125,-32.86199951171875 -18.31100082397461,-34.0620002746582 -16.82900047302246,-34.0620002746582 C-16.82900047302246,-34.0620002746582 16.82900047302246,-34.0620002746582 16.82900047302246,-34.0620002746582 C18.312000274658203,-34.0620002746582 19.513999938964844,-32.86199951171875 19.513999938964844,-31.378999710083008 C19.513999938964844,-31.378999710083008 19.513999938964844,31.378000259399414 19.513999938964844,31.378000259399414 C19.513999938964844,32.861000061035156 18.312000274658203,34.0620002746582 16.82900047302246,34.0620002746582 C16.82900047302246,34.0620002746582 -16.82900047302246,34.0620002746582 -16.82900047302246,34.0620002746582z"></path></g><g opacity="1" transform="matrix(1,0,0,1,145.14999389648438,84.50700378417969)"><path fill="rgb(255,255,255)" fill-opacity="1" d=" M-20.113000869750977,13.060999870300293 C-20.113000869750977,14.875 -18.642000198364258,16.34600067138672 -16.827999114990234,16.34600067138672 C-16.827999114990234,16.34600067138672 16.82900047302246,16.34600067138672 16.82900047302246,16.34600067138672 C18.643999099731445,16.34600067138672 20.113000869750977,14.875 20.113000869750977,13.060999870300293 C20.113000869750977,13.060999870300293 20.113000869750977,-13.062000274658203 20.113000869750977,-13.062000274658203 C20.113000869750977,-14.87600040435791 18.643999099731445,-16.34600067138672 16.82900047302246,-16.34600067138672 C16.82900047302246,-16.34600067138672 -16.827999114990234,-16.34600067138672 -16.827999114990234,-16.34600067138672 C-18.642000198364258,-16.34600067138672 -20.113000869750977,-14.87600040435791 -20.113000869750977,-13.062000274658203 C-20.113000869750977,-13.062000274658203 -20.113000869750977,13.060999870300293 -20.113000869750977,13.060999870300293z M-16.827999114990234,15.744999885559082 C-18.309999465942383,15.744999885559082 -19.513999938964844,14.543999671936035 -19.513999938964844,13.060999870300293 C-19.513999938964844,13.060999870300293 -19.513999938964844,-13.062000274658203 -19.513999938964844,-13.062000274658203 C-19.513999938964844,-14.545000076293945 -18.309999465942383,-15.744999885559082 -16.827999114990234,-15.744999885559082 C-16.827999114990234,-15.744999885559082 16.82900047302246,-15.744999885559082 16.82900047302246,-15.744999885559082 C18.312000274658203,-15.744999885559082 19.513999938964844,-14.545000076293945 19.513999938964844,-13.062000274658203 C19.513999938964844,-13.062000274658203 19.513999938964844,13.060999870300293 19.513999938964844,13.060999870300293 C19.513999938964844,14.543999671936035 18.312000274658203,15.744999885559082 16.82900047302246,15.744999885559082 C16.82900047302246,15.744999885559082 -16.827999114990234,15.744999885559082 -16.827999114990234,15.744999885559082z"></path></g><g opacity="1" transform="matrix(1,0,0,1,145.14999389648438,121.13899993896484)"><path fill="rgb(255,255,255)" fill-opacity="1" d=" M-20.113000869750977,13.060999870300293 C-20.113000869750977,14.875 -18.642000198364258,16.34600067138672 -16.827999114990234,16.34600067138672 C-16.827999114990234,16.34600067138672 16.82900047302246,16.34600067138672 16.82900047302246,16.34600067138672 C18.643999099731445,16.34600067138672 20.113000869750977,14.875 20.113000869750977,13.060999870300293 C20.113000869750977,13.060999870300293 20.113000869750977,-13.060999870300293 20.113000869750977,-13.060999870300293 C20.113000869750977,-14.875 18.643999099731445,-16.34600067138672 16.82900047302246,-16.34600067138672 C16.82900047302246,-16.34600067138672 -16.827999114990234,-16.34600067138672 -16.827999114990234,-16.34600067138672 C-18.642000198364258,-16.34600067138672 -20.113000869750977,-14.875 -20.113000869750977,-13.060999870300293 C-20.113000869750977,-13.060999870300293 -20.113000869750977,13.060999870300293 -20.113000869750977,13.060999870300293z M-16.827999114990234,15.744999885559082 C-18.309999465942383,15.744999885559082 -19.513999938964844,14.543999671936035 -19.513999938964844,13.060999870300293 C-19.513999938964844,13.060999870300293 -19.513999938964844,-13.060999870300293 -19.513999938964844,-13.060999870300293 C-19.513999938964844,-14.543999671936035 -18.309999465942383,-15.744999885559082 -16.827999114990234,-15.744999885559082 C-16.827999114990234,-15.744999885559082 16.82900047302246,-15.744999885559082 16.82900047302246,-15.744999885559082 C18.312000274658203,-15.744999885559082 19.513999938964844,-14.543999671936035 19.513999938964844,-13.060999870300293 C19.513999938964844,-13.060999870300293 19.513999938964844,13.060999870300293 19.513999938964844,13.060999870300293 C19.513999938964844,14.543999671936035 18.312000274658203,15.744999885559082 16.82900047302246,15.744999885559082 C16.82900047302246,15.744999885559082 -16.827999114990234,15.744999885559082 -16.827999114990234,15.744999885559082z"></path></g></g></g><g transform="matrix(1,0,0,1,0,0)" opacity="1" style="display: block;"><g opacity="1" transform="matrix(1,0,0,1,28.05699920654297,45.31399917602539)"><path fill="rgb(225,228,240)" fill-opacity="1" d=" M0,27.364999771118164 C15.13599967956543,27.364999771118164 27.4060001373291,15.11299991607666 27.4060001373291,-0.0010000000474974513 C27.4060001373291,-15.11400032043457 15.13599967956543,-27.364999771118164 0,-27.364999771118164 C-15.13599967956543,-27.364999771118164 -27.4060001373291,-15.11400032043457 -27.4060001373291,-0.0010000000474974513 C-27.4060001373291,15.11299991607666 -15.13599967956543,27.364999771118164 0,27.364999771118164z"></path></g><g opacity="1" transform="matrix(1,0,0,1,33.94499969482422,39.43299865722656)"><path fill="rgb(98,102,240)" fill-opacity="1" d=" M21.511999130249023,6.3429999351501465 C21.513999938964844,6.188000202178955 21.516000747680664,6.0329999923706055 21.516000747680664,5.877999782562256 C21.513999938964844,-9.239999771118164 9.25100040435791,-21.483999252319336 -5.889999866485596,-21.483999252319336 C-6.046000003814697,-21.483999252319336 -6.199999809265137,-21.482999801635742 -6.355000019073486,-21.479999542236328 C-11.293999671936035,-21.400999069213867 -15.72599983215332,-18.430999755859375 -17.67300033569336,-13.89799976348877 C-21.516000747680664,-4.870999813079834 -19.483999252319336,5.581999778747559 -12.536999702453613,12.517999649047852 C-5.591000080108643,19.45400047302246 4.879000186920166,21.482999801635742 13.920000076293945,17.645999908447266 C18.459999084472656,15.701000213623047 21.433000564575195,11.274999618530273 21.511999130249023,6.3429999351501465z"></path></g><g opacity="1" transform="matrix(1,0,0,1,28.05500030517578,58.99800109863281)"><path fill="rgb(19,16,33)" fill-opacity="1" d=" M-27.4060001373291,-13.982000350952148 C-27.239999771118164,-13.982000350952148 -27.106000900268555,-13.847999572753906 -27.106000900268555,-13.682000160217285 C-27.106000900268555,1.2649999856948853 -14.970000267028809,13.383000373840332 0,13.383000373840332 C14.970999717712402,13.383000373840332 27.106000900268555,1.2649999856948853 27.106000900268555,-13.682000160217285 C27.106000900268555,-13.847999572753906 27.239999771118164,-13.982000350952148 27.4060001373291,-13.982000350952148 C27.57200050354004,-13.982000350952148 27.70599937438965,-13.847999572753906 27.70599937438965,-13.682000160217285 C27.70599937438965,1.597000002861023 15.302000045776367,13.982000350952148 0,13.982000350952148 C-15.300999641418457,13.982000350952148 -27.70599937438965,1.597000002861023 -27.70599937438965,-13.682000160217285 C-27.70599937438965,-13.847999572753906 -27.57200050354004,-13.982000350952148 -27.4060001373291,-13.982000350952148z"></path></g></g><g transform="matrix(1,0,0,1,0,0)" opacity="1" style="display: block;"><g opacity="1" transform="matrix(1,0,0,1,10.47700023651123,84.84300231933594)"><path fill="rgb(19,16,33)" fill-opacity="1" d=" M9.538999557495117,5.4079999923706055 C9.517000198364258,5.572000026702881 9.364999771118164,5.688000202178955 9.201000213623047,5.664999961853027 C9.201000213623047,5.664999961853027 9.241999626159668,5.368000030517578 9.241999626159668,5.368000030517578 C9.201000213623047,5.664999961853027 9.201000213623047,5.664999961853027 9.201000213623047,5.664999961853027 C9.201000213623047,5.664999961853027 9.199999809265137,5.664999961853027 9.199999809265137,5.664999961853027 C9.199999809265137,5.664999961853027 9.197999954223633,5.664999961853027 9.197999954223633,5.664999961853027 C9.197999954223633,5.664999961853027 9.192000389099121,5.663000106811523 9.192000389099121,5.663000106811523 C9.185999870300293,5.6620001792907715 9.178999900817871,5.6620001792907715 9.168999671936035,5.660999774932861 C9.149999618530273,5.6579999923706055 9.121000289916992,5.6519999504089355 9.083999633789062,5.645999908447266 C9.010000228881836,5.633999824523926 8.901000022888184,5.614999771118164 8.760000228881836,5.586999893188477 C8.47700023651123,5.5320000648498535 8.0649995803833,5.443999767303467 7.544000148773193,5.307000160217285 C6.502999782562256,5.034999847412109 5.0229997634887695,4.572000026702881 3.260999917984009,3.813999891281128 C-0.2639999985694885,2.296999931335449 -4.916999816894531,-0.4050000011920929 -9.446999549865723,-5.150000095367432 C-9.560999870300293,-5.269000053405762 -9.557000160217285,-5.459000110626221 -9.437000274658203,-5.572999954223633 C-9.317000389099121,-5.688000202178955 -9.126999855041504,-5.684000015258789 -9.012999534606934,-5.564000129699707 C-4.546999931335449,-0.8870000243186951 0.03500000014901161,1.7730000019073486 3.497999906539917,3.26200008392334 C5.229000091552734,4.007999897003174 6.681000232696533,4.460999965667725 7.697000026702881,4.7270002365112305 C8.204999923706055,4.860000133514404 8.602999687194824,4.947000026702881 8.87399959564209,4.999000072479248 C9.010000228881836,5.026000022888184 9.11299991607666,5.044000148773193 9.182000160217285,5.054999828338623 C9.215999603271484,5.060999870300293 9.241999626159668,5.064000129699707 9.258999824523926,5.065999984741211 C9.267999649047852,5.067999839782715 9.27400016784668,5.070000171661377 9.277999877929688,5.070000171661377 C9.277999877929688,5.070000171661377 9.281999588012695,5.070000171661377 9.281999588012695,5.070000171661377 C9.281999588012695,5.070000171661377 9.282999992370605,5.070000171661377 9.282999992370605,5.070000171661377 C9.446999549865723,5.0929999351501465 9.560999870300293,5.24399995803833 9.538999557495117,5.4079999923706055z"></path></g><g opacity="1" transform="matrix(1,0,0,1,10.75100040435791,80.90899658203125)"><path fill="rgb(19,16,33)" fill-opacity="1" d=" M6.827000141143799,4.052999973297119 C6.78000020980835,4.211999893188477 6.613999843597412,4.303999900817871 6.453999996185303,4.257999897003174 C6.453999996185303,4.257999897003174 6.539999961853027,3.9690001010894775 6.539999961853027,3.9690001010894775 C6.539999961853027,3.9690001010894775 6.453999996185303,4.257999897003174 6.453999996185303,4.257999897003174 C6.453999996185303,4.257999897003174 6.452000141143799,4.256999969482422 6.452000141143799,4.256999969482422 C6.452000141143799,4.256999969482422 6.448999881744385,4.25600004196167 6.448999881744385,4.25600004196167 C6.448999881744385,4.25600004196167 6.432000160217285,4.250999927520752 6.432000160217285,4.250999927520752 C6.419000148773193,4.247000217437744 6.400000095367432,4.239999771118164 6.374000072479248,4.23199987411499 C6.322000026702881,4.215000152587891 6.24399995803833,4.191999912261963 6.144999980926514,4.1579999923706055 C5.947000026702881,4.0920000076293945 5.658999919891357,3.990999937057495 5.291999816894531,3.8510000705718994 C4.559000015258789,3.572000026702881 3.515000104904175,3.13700008392334 2.2709999084472656,2.513000011444092 C-0.2160000056028366,1.2669999599456787 -3.510999917984009,-0.7350000143051147 -6.747000217437744,-3.753000020980835 C-6.868000030517578,-3.865000009536743 -6.873000144958496,-4.054999828338623 -6.760000228881836,-4.176000118255615 C-6.646999835968018,-4.297999858856201 -6.458000183105469,-4.302999973297119 -6.336999893188477,-4.190999984741211 C-3.1530001163482666,-1.2200000286102295 0.09200000017881393,0.75 2.5399999618530273,1.9769999980926514 C3.7639999389648438,2.5899999141693115 4.788000106811523,3.0169999599456787 5.505000114440918,3.2909998893737793 C5.86299991607666,3.427999973297119 6.144000053405762,3.5260000228881836 6.335000038146973,3.5899999141693115 C6.431000232696533,3.621000051498413 6.505000114440918,3.6449999809265137 6.552999973297119,3.6600000858306885 C6.578000068664551,3.6670000553131104 6.59499979019165,3.671999931335449 6.60699987411499,3.6760001182556152 C6.60699987411499,3.6760001182556152 6.619999885559082,3.680000066757202 6.619999885559082,3.680000066757202 C6.619999885559082,3.680000066757202 6.624000072479248,3.680999994277954 6.624000072479248,3.680999994277954 C6.624000072479248,3.680999994277954 6.624000072479248,3.681999921798706 6.624000072479248,3.681999921798706 C6.7829999923706055,3.7279999256134033 6.873000144958496,3.8940000534057617 6.827000141143799,4.052999973297119z"></path></g></g><g transform="matrix(1,0,0,1,90,90)" opacity="1" style="display: block;"><g opacity="1" transform="matrix(1,0,0,1,0,0)"><path stroke-linecap="round" stroke-linejoin="miter" fill-opacity="0" stroke-miterlimit="4" stroke="rgb(19,16,34)" stroke-opacity="1" stroke-width="0.6" d="M0 0"></path></g></g><g transform="matrix(0.8656482100486755,-0.6289302706718445,0.6289302706718445,0.8656482100486755,27.938488006591797,45.24406051635742)" opacity="1" style="display: block;"><path fill="rgb(99,102,241)" fill-opacity="1" d=" M0,-25 C13.797499656677246,-25 25,-13.797499656677246 25,0 C25,13.797499656677246 13.797499656677246,25 0,25 C-13.797499656677246,25 -25,13.797499656677246 -25,0 C-25,-13.797499656677246 -13.797499656677246,-25 0,-25z"></path></g></g></svg>