<svg class="m-1" xmlns="http://www.w3.org/2000/svg" width="36" height="36" fill="none"><g clip-path="url(#D)"><path d="M6.706 11.335c0-4.925 4.007-8.932 8.932-8.932s8.932 4.007 8.932 8.932a9 9 0 0 1-.169 1.73l2.358.463c.142-.723.214-1.461.214-2.193A11.35 11.35 0 0 0 15.638 0 11.35 11.35 0 0 0 4.303 11.335c0 2.566.883 5.081 2.486 7.082l1.875-1.503a8.83 8.83 0 0 1-1.958-5.579z" fill="url(#A)"></path><path d="M15.638 6.407c2.716 0 4.927 2.21 4.927 4.927h2.403a7.34 7.34 0 0 0-7.33-7.33 7.34 7.34 0 0 0-7.33 7.33 7.33 7.33 0 0 0 .959 3.623l2.088-1.19c-.421-.739-.643-1.581-.643-2.433 0-2.716 2.21-4.927 4.926-4.927z" fill="url(#B)"></path><path d="M28.375 17.3a3.31 3.31 0 0 0-1.06.173 3.33 3.33 0 0 0-3.186-2.374c-.392 0-.767.069-1.116.193a3.33 3.33 0 0 0-3.129-2.203c-.32 0-.628.046-.921.131v-1.884a3.33 3.33 0 0 0-3.324-3.324 3.33 3.33 0 0 0-3.324 3.324v6.998c-.293-.084-.602-.131-.921-.131a3.33 3.33 0 0 0-3.324 3.324v6.236a8.25 8.25 0 0 0 8.237 8.237h7.157a8.25 8.25 0 0 0 8.237-8.237v-7.14a3.33 3.33 0 0 0-3.324-3.324zm.921 10.464c0 3.217-2.617 5.834-5.834 5.834h-7.157c-3.217 0-5.834-2.617-5.834-5.834v-6.236c0-.508.413-.921.921-.921s.921.413.921.921v4.852h2.403V11.336c0-.508.413-.921.921-.921s.921.413.921.921v5.077 3.526.684h2.403v-.684-3.526c0-.508.413-.921.921-.921s.921.413.921.921v4.211h2.403v-2.201c0-.508.413-.921.921-.921s.921.413.921.921v2.201h2.403c0-.508.413-.921.921-.921s.921.413.921.921v7.14z" fill="url(#C)"></path></g><defs><linearGradient id="A" x1="4.303" y1="9.252" x2="26.973" y2="9.252" gradientUnits="userSpaceOnUse"><stop offset="0" stop-color="#6366f1"></stop><stop offset=".5" stop-color="#8b5cf6"></stop><stop offset="1" stop-color="#d946ef"></stop></linearGradient><linearGradient id="B" x1="8.309" y1="9.506" x2="22.968" y2="9.506" gradientUnits="userSpaceOnUse"><stop offset="0" stop-color="#6366f1"></stop><stop offset=".5" stop-color="#8b5cf6"></stop><stop offset="1" stop-color="#d946ef"></stop></linearGradient><linearGradient id="C" x1="8.068" y1="22.073" x2="31.7" y2="22.073" gradientUnits="userSpaceOnUse"><stop offset="0" stop-color="#6366f1"></stop><stop offset=".5" stop-color="#8b5cf6"></stop><stop offset="1" stop-color="#d946ef"></stop></linearGradient><clipPath id="D"><path fill="#fff" d="M0 0h36v36H0z"></path></clipPath></defs></svg>